<svg width="448" height="445" viewBox="0 0 448 445" fill="none" xmlns="http://www.w3.org/2000/svg">
<g clip-path="url(#clip0_21_68)">
<rect x="219" y="335" width="13" height="34" fill="#3E736A"/>
<path d="M-147.92 820.07L-149 818.985L488.026 179.128L489.106 180.213L-147.92 820.07Z" fill="#599D92"/>
<path d="M787.76 824.805L786.68 825.89L-121.794 -85.415L-120.714 -86.5L787.76 824.805Z" fill="#599D92"/>
<path d="M787.794 934.482L786.645 935.636L-18.5445 126.868L-17.3954 125.714L787.794 934.482Z" fill="#599D92"/>
<path d="M-76.6061 30.0871L-77.6863 31.1721L-78.7686 30.085L-77.6884 29L-76.6061 30.0871ZM-72.2779 34.4346L-73.3581 35.5196L-75.5222 33.3458L-74.442 32.2608L-72.2779 34.4346ZM-67.9497 38.782L-69.0299 39.867L-71.194 37.6933L-70.1138 36.6083L-67.9497 38.782ZM-63.6215 43.1294L-64.7017 44.2144L-66.8658 42.0407L-65.7856 40.9557L-63.6215 43.1294ZM-59.2933 47.4769L-60.3735 48.5619L-62.5376 46.3882L-61.4574 45.3032L-59.2933 47.4769ZM-54.9646 51.8248L-56.0448 52.9099L-58.2094 50.7356L-57.1292 49.6506L-54.9646 51.8248ZM-50.6364 56.1723L-51.7166 57.2573L-53.8807 55.0836L-52.8005 53.9986L-50.6364 56.1723ZM-46.3081 60.5197L-47.3884 61.6047L-49.5525 59.431L-48.4722 58.346L-46.3081 60.5197ZM-41.9799 64.8672L-43.0601 65.9522L-45.2242 63.7785L-44.144 62.6934L-41.9799 64.8672ZM-37.6517 69.2146L-38.7319 70.2996L-40.896 68.1259L-39.8158 67.0409L-37.6517 69.2146ZM-33.323 73.5626L-34.4032 74.6476L-36.5673 72.4739L-35.4871 71.3889L-33.323 73.5626ZM-28.9948 77.91L-30.075 78.995L-32.2391 76.8213L-31.1589 75.7363L-28.9948 77.91ZM-24.6666 82.2575L-25.7468 83.3425L-27.9109 81.1687L-26.8307 80.0837L-24.6666 82.2575ZM-20.3384 86.6049L-21.4186 87.6899L-23.5827 85.5162L-22.5025 84.4312L-20.3384 86.6049ZM-16.0102 90.9523L-17.0904 92.0373L-19.2545 89.8636L-18.1743 88.7786L-16.0102 90.9523ZM-11.6815 95.3003L-12.7617 96.3853L-14.9258 94.2116L-13.8456 93.1266L-11.6815 95.3003ZM-7.35326 99.6477L-8.43346 100.733L-10.5976 98.559L-9.51736 97.474L-7.35326 99.6477ZM-3.02505 103.995L-4.10526 105.08L-6.26936 102.906L-5.18916 101.821L-3.02505 103.995ZM1.30315 108.343L0.222945 109.428L-1.94116 107.254L-0.860952 106.169L1.30315 108.343ZM5.63188 112.691L4.55168 113.776L2.38705 111.601L3.46725 110.516L5.63188 112.691ZM9.96008 117.038L8.87988 118.123L6.71578 115.949L7.79598 114.864L9.96008 117.038ZM14.2883 121.385L13.2081 122.47L11.044 120.297L12.1242 119.212L14.2883 121.385ZM18.6165 125.733L17.5363 126.818L15.3722 124.644L16.4524 123.559L18.6165 125.733ZM22.9447 130.08L21.8645 131.165L19.7004 128.992L20.7806 127.907L22.9447 130.08ZM27.2734 134.428L26.1932 135.513L24.0286 133.339L25.1088 132.254L27.2734 134.428ZM31.6016 138.776L30.5214 139.861L28.3573 137.687L29.4375 136.602L31.6016 138.776ZM35.9298 143.123L34.8496 144.208L32.6855 142.034L33.7657 140.949L35.9298 143.123ZM40.258 147.471L39.1778 148.556L37.0137 146.382L38.0939 145.297L40.258 147.471ZM44.5862 151.818L43.506 152.903L41.3419 150.729L42.4221 149.644L44.5862 151.818ZM48.915 156.166L47.8348 157.251L45.6707 155.077L46.7509 153.992L48.915 156.166ZM53.2432 160.513L52.163 161.598L49.9989 159.425L51.0791 158.34L53.2432 160.513ZM57.5714 164.861L56.4912 165.946L54.3271 163.772L55.4073 162.687L57.5714 164.861ZM61.8996 169.208L60.8194 170.293L58.6553 168.12L59.7355 167.035L61.8996 169.208ZM66.2283 173.556L65.1481 174.641L62.9835 172.467L64.0637 171.382L66.2283 173.556ZM70.5565 177.904L69.4763 178.989L67.3122 176.815L68.3924 175.73L70.5565 177.904ZM74.8847 182.251L73.8045 183.336L71.6404 181.162L72.7206 180.077L74.8847 182.251ZM79.2129 186.599L78.1327 187.684L75.9686 185.51L77.0488 184.425L79.2129 186.599ZM83.5411 190.946L82.4609 192.031L80.2968 189.857L81.377 188.772L83.5411 190.946ZM87.8693 195.294L86.7891 196.379L84.625 194.205L85.7052 193.12L87.8693 195.294ZM92.1981 199.641L91.1179 200.726L88.9538 198.553L90.034 197.468L92.1981 199.641ZM96.5263 203.989L95.4461 205.074L93.282 202.9L94.3622 201.815L96.5263 203.989ZM100.854 208.336L99.7743 209.421L97.6102 207.248L98.6904 206.163L100.854 208.336ZM105.183 212.684L104.102 213.769L101.938 211.595L103.019 210.51L105.183 212.684ZM109.511 217.031L108.431 218.116L106.267 215.943L107.347 214.858L109.511 217.031ZM113.84 221.379L112.759 222.464L110.595 220.29L111.676 219.205L113.84 221.379ZM118.168 225.727L117.088 226.812L114.924 224.638L116.004 223.553L118.168 225.727ZM122.496 230.074L121.416 231.159L119.252 228.985L120.332 227.9L122.496 230.074ZM126.824 234.422L125.744 235.507L123.58 233.333L124.66 232.248L126.824 234.422ZM131.152 238.769L130.072 239.854L127.908 237.68L128.988 236.595L131.152 238.769ZM135.481 243.117L134.401 244.202L132.236 242.028L133.317 240.943L135.481 243.117ZM139.809 247.464L138.729 248.549L136.565 246.376L137.645 245.291L139.809 247.464ZM144.138 251.812L143.057 252.897L140.893 250.723L141.973 249.638L144.138 251.812ZM148.466 256.159L147.386 257.244L145.221 255.071L146.302 253.986L148.466 256.159ZM152.794 260.507L151.714 261.592L149.55 259.418L150.63 258.333L152.794 260.507ZM157.122 264.854L156.042 265.939L153.878 263.765L154.958 262.68L157.122 264.854ZM161.451 269.202L160.371 270.287L158.207 268.113L159.287 267.028L161.451 269.202ZM165.779 273.55L164.699 274.635L162.535 272.461L163.615 271.376L165.779 273.55ZM170.107 277.897L169.027 278.982L166.863 276.808L167.943 275.723L170.107 277.897ZM174.436 282.244L173.355 283.329L171.191 281.156L172.271 280.071L174.436 282.244ZM178.764 286.592L177.684 287.677L175.519 285.503L176.6 284.418L178.764 286.592ZM183.092 290.94L182.012 292.025L179.848 289.851L180.928 288.766L183.092 290.94ZM187.421 295.287L186.34 296.372L184.176 294.199L185.257 293.114L187.421 295.287ZM191.749 299.635L190.669 300.72L188.505 298.546L189.585 297.461L191.749 299.635ZM196.077 303.982L194.997 305.067L192.833 302.893L193.913 301.808L196.077 303.982ZM200.405 308.33L199.325 309.415L197.161 307.241L198.241 306.156L200.405 308.33ZM204.734 312.678L203.654 313.763L201.489 311.588L202.569 310.503L204.734 312.678ZM209.062 317.025L207.982 318.11L205.818 315.936L206.898 314.851L209.062 317.025ZM213.39 321.372L212.31 322.457L210.146 320.284L211.226 319.199L213.39 321.372ZM217.719 325.72L216.638 326.805L214.474 324.631L215.555 323.546L217.719 325.72ZM222.047 330.068L220.967 331.153L218.803 328.979L219.883 327.894L222.047 330.068ZM226.376 334.415L225.295 335.5L223.131 333.327L224.211 332.242L226.376 334.415ZM230.704 338.763L229.624 339.848L227.459 337.674L228.54 336.589L230.704 338.763ZM235.032 343.11L233.952 344.195L231.788 342.021L232.868 340.936L235.032 343.11ZM239.361 347.458L238.28 348.543L236.116 346.369L237.196 345.284L239.361 347.458ZM243.689 351.806L242.609 352.891L240.445 350.717L241.525 349.632L243.689 351.806ZM248.017 356.153L246.937 357.238L244.773 355.064L245.853 353.979L248.017 356.153ZM252.345 360.5L251.265 361.585L249.101 359.412L250.181 358.327L252.345 360.5ZM256.674 364.848L255.594 365.933L253.429 363.759L254.509 362.674L256.674 364.848ZM261.002 369.196L259.922 370.281L257.758 368.107L258.838 367.022L261.002 369.196ZM265.33 373.543L264.25 374.628L262.086 372.455L263.166 371.37L265.33 373.543ZM269.659 377.891L268.578 378.976L266.414 376.802L267.495 375.717L269.659 377.891ZM273.987 382.239L272.907 383.324L270.743 381.149L271.823 380.064L273.987 382.239ZM278.316 386.586L277.235 387.671L275.071 385.497L276.151 384.412L278.316 386.586ZM282.644 390.934L281.564 392.019L279.399 389.845L280.48 388.76L282.644 390.934ZM286.972 395.281L285.892 396.366L283.728 394.192L284.808 393.107L286.972 395.281ZM291.301 399.629L290.221 400.714L288.056 398.54L289.136 397.455L291.301 399.629ZM295.629 403.976L294.549 405.061L292.385 402.888L293.465 401.803L295.629 403.976ZM299.957 408.324L298.877 409.409L296.713 407.235L297.793 406.15L299.957 408.324ZM304.285 412.671L303.205 413.756L301.041 411.583L302.121 410.498L304.285 412.671ZM308.614 417.019L307.534 418.104L305.369 415.93L306.449 414.845L308.614 417.019ZM312.942 421.367L311.862 422.452L309.698 420.278L310.778 419.193L312.942 421.367ZM317.27 425.714L316.19 426.799L314.026 424.625L315.106 423.54L317.27 425.714ZM321.599 430.062L320.518 431.147L318.354 428.973L319.435 427.888L321.599 430.062ZM325.927 434.41L324.847 435.495L322.683 433.32L323.763 432.235L325.927 434.41ZM330.256 438.757L329.175 439.842L327.011 437.668L328.092 436.583L330.256 438.757ZM334.584 443.104L333.504 444.189L331.34 442.016L332.42 440.931L334.584 443.104ZM338.912 447.452L337.832 448.537L335.668 446.363L336.748 445.278L338.912 447.452ZM343.241 451.8L342.161 452.885L339.996 450.711L341.076 449.626L343.241 451.8ZM347.569 456.147L346.489 457.232L344.325 455.059L345.405 453.974L347.569 456.147ZM351.897 460.495L350.817 461.58L348.653 459.406L349.733 458.321L351.897 460.495ZM356.225 464.842L355.145 465.927L352.981 463.753L354.061 462.668L356.225 464.842ZM360.554 469.19L359.474 470.275L357.309 468.101L358.389 467.016L360.554 469.19ZM364.882 473.538L363.802 474.623L361.638 472.449L362.718 471.364L364.882 473.538ZM369.21 477.885L368.13 478.97L365.966 476.796L367.046 475.711L369.21 477.885ZM373.539 482.232L372.458 483.317L370.294 481.144L371.375 480.059L373.539 482.232ZM377.867 486.58L376.787 487.665L374.623 485.491L375.703 484.406L377.867 486.58ZM382.196 490.928L381.115 492.013L378.951 489.839L380.032 488.754L382.196 490.928ZM386.524 495.275L385.444 496.36L383.28 494.187L384.36 493.102L386.524 495.275ZM390.852 499.623L389.772 500.708L387.608 498.534L388.688 497.449L390.852 499.623ZM395.181 503.971L394.101 505.056L391.936 502.881L393.016 501.796L395.181 503.971ZM399.509 508.318L398.429 509.403L396.265 507.229L397.345 506.144L399.509 508.318ZM403.837 512.666L402.757 513.751L400.593 511.577L401.673 510.492L403.837 512.666ZM408.165 517.013L407.085 518.098L404.921 515.924L406.001 514.839L408.165 517.013ZM412.494 521.361L411.414 522.446L409.25 520.272L410.33 519.187L412.494 521.361ZM416.822 525.708L415.742 526.793L413.578 524.62L414.658 523.535L416.822 525.708ZM421.151 530.056L420.07 531.141L417.906 528.967L418.986 527.882L421.151 530.056ZM425.479 534.403L424.399 535.488L422.234 533.315L423.315 532.23L425.479 534.403ZM429.807 538.751L428.727 539.836L426.563 537.663L427.643 536.578L429.807 538.751ZM434.136 543.099L433.055 544.184L430.891 542.01L431.972 540.925L434.136 543.099ZM438.464 547.446L437.384 548.531L435.22 546.357L436.3 545.272L438.464 547.446ZM442.792 551.794L441.712 552.879L439.548 550.705L440.628 549.62L442.792 551.794ZM447.121 556.142L446.041 557.227L443.876 555.053L444.957 553.968L447.121 556.142ZM451.449 560.489L450.369 561.574L448.205 559.4L449.285 558.315L451.449 560.489ZM455.777 564.836L454.697 565.921L452.533 563.748L453.613 562.663L455.777 564.836ZM460.105 569.184L459.025 570.269L456.861 568.095L457.941 567.01L460.105 569.184ZM464.434 573.532L463.354 574.617L461.19 572.443L462.27 571.358L464.434 573.532ZM468.762 577.879L467.682 578.964L465.518 576.791L466.598 575.706L468.762 577.879ZM473.091 582.227L472.01 583.312L469.846 581.138L470.926 580.053L473.091 582.227ZM477.419 586.574L476.339 587.659L474.174 585.485L475.255 584.4L477.419 586.574ZM481.747 590.922L480.667 592.007L478.503 589.833L479.583 588.748L481.747 590.922ZM486.076 595.27L484.995 596.355L482.831 594.181L483.912 593.096L486.076 595.27ZM490.404 599.617L489.324 600.702L487.16 598.528L488.24 597.443L490.404 599.617ZM494.732 603.964L493.652 605.049L491.488 602.876L492.568 601.791L494.732 603.964ZM499.061 608.312L497.981 609.397L495.817 607.224L496.897 606.139L499.061 608.312ZM503.389 612.66L502.309 613.745L500.145 611.571L501.225 610.486L503.389 612.66ZM507.717 617.007L506.637 618.092L504.473 615.919L505.553 614.834L507.717 617.007ZM512.045 621.355L510.965 622.44L508.801 620.266L509.881 619.181L512.045 621.355ZM516.374 625.703L515.294 626.788L513.13 624.614L514.21 623.529L516.374 625.703ZM520.702 630.05L519.622 631.135L517.458 628.961L518.538 627.876L520.702 630.05ZM525.031 634.398L523.95 635.483L521.786 633.309L522.866 632.224L525.031 634.398ZM529.359 638.745L528.279 639.83L526.114 637.656L527.195 636.571L529.359 638.745ZM533.688 643.093L532.607 644.178L530.443 642.004L531.523 640.919L533.688 643.093ZM538.016 647.44L536.936 648.525L534.771 646.352L535.852 645.267L538.016 647.44ZM542.344 651.788L541.264 652.873L539.1 650.699L540.18 649.614L542.344 651.788ZM546.672 656.135L545.592 657.22L543.428 655.047L544.508 653.962L546.672 656.135ZM551.001 660.483L549.921 661.568L547.757 659.395L548.837 658.31L551.001 660.483ZM555.329 664.831L554.249 665.916L552.085 663.742L553.165 662.657L555.329 664.831ZM559.657 669.178L558.577 670.263L556.413 668.089L557.493 667.004L559.657 669.178ZM563.985 673.526L562.905 674.611L560.741 672.437L561.821 671.352L563.985 673.526ZM568.314 677.874L567.234 678.959L565.07 676.785L566.15 675.7L568.314 677.874ZM572.642 682.221L571.562 683.306L569.398 681.132L570.478 680.047L572.642 682.221ZM576.971 686.568L575.89 687.653L573.726 685.48L574.807 684.395L576.971 686.568ZM581.299 690.916L580.219 692.001L578.055 689.827L579.135 688.742L581.299 690.916ZM585.628 695.264L584.547 696.349L582.383 694.175L583.463 693.09L585.628 695.264ZM589.956 699.611L588.876 700.696L586.711 698.523L587.792 697.438L589.956 699.611ZM594.284 703.959L593.204 705.044L591.04 702.87L592.12 701.785L594.284 703.959ZM598.612 708.306L597.532 709.391L595.368 707.217L596.448 706.132L598.612 708.306ZM602.941 712.654L601.861 713.739L599.697 711.565L600.777 710.48L602.941 712.654ZM607.269 717.002L606.189 718.087L604.025 715.913L605.105 714.828L607.269 717.002ZM611.597 721.349L610.517 722.434L608.353 720.26L609.433 719.175L611.597 721.349ZM615.925 725.696L614.845 726.781L612.681 724.608L613.761 723.523L615.925 725.696ZM620.254 730.044L619.174 731.129L617.01 728.956L618.09 727.871L620.254 730.044ZM624.582 734.392L623.502 735.477L621.338 733.303L622.418 732.218L624.582 734.392ZM628.911 738.739L627.83 739.824L625.666 737.651L626.747 736.566L628.911 738.739ZM633.239 743.087L632.159 744.172L629.995 741.998L631.075 740.913L633.239 743.087ZM637.568 747.435L636.487 748.52L634.323 746.346L635.403 745.261L637.568 747.435ZM641.896 751.782L640.816 752.867L638.651 750.693L639.732 749.608L641.896 751.782ZM646.224 756.13L645.144 757.215L642.98 755.041L644.06 753.956L646.224 756.13ZM650.552 760.477L649.472 761.562L647.308 759.388L648.388 758.303L650.552 760.477ZM654.881 764.825L653.801 765.91L651.637 763.736L652.717 762.651L654.881 764.825ZM659.209 769.172L658.129 770.257L655.965 768.084L657.045 766.999L659.209 769.172ZM663.537 773.52L662.457 774.605L660.293 772.431L661.373 771.346L663.537 773.52ZM667.866 777.867L666.785 778.952L664.621 776.779L665.701 775.694L667.866 777.867ZM672.194 782.215L671.114 783.3L668.95 781.127L670.03 780.042L672.194 782.215ZM676.522 786.563L675.442 787.648L673.278 785.474L674.358 784.389L676.522 786.563ZM680.851 790.91L679.77 791.995L677.606 789.821L678.687 788.736L680.851 790.91ZM685.179 795.258L684.099 796.343L681.935 794.169L683.015 793.084L685.179 795.258ZM688.423 798.516L687.343 799.601L686.263 798.517L687.343 797.432L688.423 798.516Z" fill="#599D92"/>
<path d="M235.503 351.613C235.503 351.189 235.845 350.846 236.267 350.846L243.142 350.846C243.563 350.846 243.905 351.189 243.905 351.613V358.518C243.905 358.942 243.563 359.285 243.142 359.285C242.72 359.285 242.378 358.942 242.378 358.518V353.465L226.654 369.259L231.685 369.259C232.106 369.259 232.448 369.603 232.448 370.026C232.448 370.45 232.106 370.793 231.685 370.793L224.81 370.793C224.388 370.793 224.046 370.45 224.046 370.026L224.046 363.121C224.046 362.697 224.388 362.354 224.81 362.354C225.232 362.354 225.573 362.697 225.574 363.121L225.574 368.174L241.298 352.38L236.267 352.38C235.845 352.38 235.503 352.037 235.503 351.613Z" fill="#599D92"/>
<path d="M233.778 277.538C233.778 277.114 234.121 276.77 234.543 276.77L241.417 276.77C241.839 276.77 242.181 277.114 242.181 277.538L242.181 284.442C242.181 284.866 241.839 285.21 241.417 285.21C240.995 285.21 240.653 284.866 240.653 284.443L240.653 279.39L207.361 312.829L212.392 312.829C212.814 312.83 213.156 313.173 213.156 313.596C213.156 314.02 212.814 314.363 212.392 314.364L205.517 314.364C205.096 314.364 204.754 314.02 204.754 313.596L204.754 306.691C204.754 306.268 205.096 305.924 205.517 305.924C205.939 305.924 206.281 306.268 206.281 306.691L206.281 311.744L239.573 278.305L234.542 278.305C234.121 278.304 233.779 277.961 233.778 277.538Z" fill="#599D92"/>
<path d="M222.806 348.674L223.765 347.711L228.911 350.132L226.5 344.963L227.459 344L232.061 348.622L231.361 349.325L227.991 345.94L230.116 350.562L229.339 351.343L224.737 349.208L228.107 352.593L227.407 353.296L222.806 348.674Z" fill="#599D92"/>
<path d="M225.088 355.834C224.674 356.25 224.213 356.522 223.708 356.647C223.198 356.769 222.673 356.736 222.133 356.55C221.593 356.363 221.079 356.025 220.59 355.534C220.102 355.044 219.763 354.53 219.573 353.991C219.383 353.445 219.348 352.915 219.469 352.403C219.595 351.886 219.867 351.418 220.286 350.997C220.843 350.437 221.422 350.137 222.023 350.098C222.619 350.055 223.228 350.242 223.851 350.658L223.151 351.439C222.77 351.179 222.39 351.062 222.01 351.088C221.63 351.114 221.269 351.298 220.927 351.641C220.651 351.919 220.48 352.234 220.415 352.585C220.351 352.937 220.394 353.306 220.545 353.692C220.696 354.07 220.953 354.441 221.316 354.805C221.679 355.17 222.051 355.43 222.431 355.586C222.811 355.734 223.174 355.773 223.52 355.704C223.866 355.634 224.175 355.463 224.447 355.189C224.814 354.82 225.004 354.438 225.017 354.043C225.03 353.64 224.888 353.232 224.589 352.82L225.367 352.117C225.812 352.746 226.015 353.384 225.976 354.03C225.937 354.677 225.642 355.278 225.088 355.834Z" fill="#599D92"/>
<path d="M218.294 355.862L217.322 356.838L216.758 356.272L217.154 355.875C217.331 355.697 217.45 355.534 217.51 355.386C217.571 355.23 217.571 355.074 217.51 354.918C217.445 354.757 217.316 354.579 217.121 354.384L217.672 353.83L222.274 358.453L221.574 359.156L218.294 355.862Z" fill="#599D92"/>
<mask id="path-11-inside-1_21_68" fill="white">
<path d="M323.27 304.287C322.805 304.287 322.429 304.143 322.142 303.854C321.861 303.566 321.721 303.182 321.721 302.703C321.721 302.224 321.861 301.841 322.142 301.552C322.429 301.264 322.805 301.12 323.27 301.12C323.734 301.12 324.107 301.264 324.388 301.552C324.675 301.841 324.819 302.224 324.819 302.703C324.819 303.182 324.675 303.566 324.388 303.854C324.107 304.143 323.734 304.287 323.27 304.287ZM323.27 303.633C323.477 303.633 323.639 303.553 323.755 303.394C323.871 303.228 323.929 302.998 323.929 302.703C323.929 302.409 323.871 302.182 323.755 302.022C323.639 301.856 323.477 301.773 323.27 301.773C323.056 301.773 322.891 301.856 322.775 302.022C322.658 302.188 322.6 302.415 322.6 302.703C322.6 302.992 322.658 303.219 322.775 303.385C322.891 303.55 323.056 303.633 323.27 303.633Z"/>
</mask>
<path d="M322.142 303.854L320.71 305.25L320.717 305.257L320.725 305.265L322.142 303.854ZM322.142 301.552L320.725 300.141L320.717 300.149L320.71 300.157L322.142 301.552ZM324.388 301.552L322.955 302.948L322.963 302.956L322.97 302.963L324.388 301.552ZM324.388 303.854L322.97 302.443L322.963 302.451L322.955 302.458L324.388 303.854ZM323.755 303.394L325.373 304.57L325.383 304.556L325.393 304.541L323.755 303.394ZM323.755 302.022L322.117 303.17L322.128 303.184L322.138 303.199L323.755 302.022ZM322.775 302.022L321.137 300.874L321.137 300.874L322.775 302.022ZM322.775 303.385L321.137 304.532L321.137 304.532L322.775 303.385ZM323.27 304.287V302.287C323.245 302.287 323.283 302.283 323.356 302.311C323.434 302.341 323.507 302.39 323.559 302.443L322.142 303.854L320.725 305.265C321.441 305.985 322.355 306.287 323.27 306.287V304.287ZM322.142 303.854L323.575 302.458C323.634 302.519 323.679 302.593 323.704 302.662C323.727 302.725 323.721 302.747 323.721 302.703H321.721H319.721C319.721 303.598 319.997 304.519 320.71 305.25L322.142 303.854ZM321.721 302.703H323.721C323.721 302.659 323.727 302.682 323.704 302.744C323.679 302.813 323.634 302.888 323.575 302.948L322.142 301.552L320.71 300.157C319.997 300.888 319.721 301.808 319.721 302.703H321.721ZM322.142 301.552L323.559 302.963C323.507 303.017 323.434 303.065 323.356 303.095C323.283 303.123 323.245 303.12 323.27 303.12V301.12V299.12C322.355 299.12 321.441 299.422 320.725 300.141L322.142 301.552ZM323.27 301.12V303.12C323.294 303.12 323.254 303.123 323.176 303.093C323.092 303.061 323.014 303.008 322.955 302.948L324.388 301.552L325.82 300.157C325.104 299.422 324.184 299.12 323.27 299.12V301.12ZM324.388 301.552L322.97 302.963C322.912 302.905 322.865 302.83 322.838 302.758C322.813 302.691 322.819 302.664 322.819 302.703H324.819H326.819C326.819 301.796 326.531 300.87 325.805 300.141L324.388 301.552ZM324.819 302.703H322.819C322.819 302.743 322.813 302.716 322.838 302.649C322.865 302.576 322.912 302.502 322.97 302.443L324.388 303.854L325.805 305.265C326.531 304.536 326.819 303.611 326.819 302.703H324.819ZM324.388 303.854L322.955 302.458C323.014 302.398 323.092 302.346 323.176 302.313C323.254 302.283 323.294 302.287 323.27 302.287V304.287V306.287C324.184 306.287 325.104 305.985 325.82 305.25L324.388 303.854ZM323.27 303.633V305.633C324.077 305.633 324.857 305.279 325.373 304.57L323.755 303.394L322.138 302.217C322.253 302.06 322.426 301.896 322.663 301.779C322.896 301.665 323.113 301.633 323.27 301.633V303.633ZM323.755 303.394L325.393 304.541C325.83 303.918 325.929 303.23 325.929 302.703H323.929H321.929C321.929 302.766 321.913 302.538 322.117 302.246L323.755 303.394ZM323.929 302.703H325.929C325.929 302.184 325.833 301.478 325.373 300.845L323.755 302.022L322.138 303.199C322.022 303.039 321.97 302.894 321.948 302.807C321.927 302.724 321.929 302.682 321.929 302.703H323.929ZM323.755 302.022L325.393 300.874C324.891 300.158 324.109 299.773 323.27 299.773V301.773V303.773C323.102 303.773 322.875 303.738 322.636 303.616C322.395 303.493 322.225 303.323 322.117 303.17L323.755 302.022ZM323.27 301.773V299.773C322.447 299.773 321.652 300.139 321.137 300.874L322.775 302.022L324.413 303.17C324.299 303.331 324.124 303.502 323.883 303.623C323.646 303.742 323.425 303.773 323.27 303.773V301.773ZM322.775 302.022L321.137 300.874C320.704 301.492 320.6 302.172 320.6 302.703H322.6H324.6C324.6 302.657 324.613 302.883 324.413 303.17L322.775 302.022ZM322.6 302.703H320.6C320.6 303.234 320.704 303.915 321.137 304.532L322.775 303.385L324.413 302.237C324.613 302.523 324.6 302.749 324.6 302.703H322.6ZM322.775 303.385L321.137 304.532C321.652 305.267 322.447 305.633 323.27 305.633V303.633V301.633C323.425 301.633 323.646 301.665 323.883 301.784C324.124 301.905 324.299 302.075 324.413 302.237L322.775 303.385Z" fill="#599D92" mask="url(#path-11-inside-1_21_68)"/>
<mask id="path-13-inside-2_21_68" fill="white">
<path d="M318.862 307.831C318.33 307.831 317.866 307.693 317.468 307.417C317.071 307.141 316.763 306.748 316.543 306.239C316.329 305.723 316.222 305.118 316.222 304.425C316.222 303.731 316.329 303.127 316.543 302.611C316.763 302.096 317.071 301.7 317.468 301.424C317.866 301.141 318.33 301 318.862 301C319.405 301 319.876 301.138 320.273 301.414C320.67 301.69 320.976 302.086 321.19 302.602C321.404 303.118 321.51 303.725 321.51 304.425C321.51 305.118 321.404 305.723 321.19 306.239C320.976 306.748 320.67 307.141 320.273 307.417C319.876 307.693 319.405 307.831 318.862 307.831ZM318.862 306.92C319.21 306.92 319.503 306.825 319.741 306.634C319.986 306.444 320.169 306.162 320.291 305.787C320.42 305.413 320.484 304.959 320.484 304.425C320.484 303.885 320.42 303.427 320.291 303.053C320.169 302.679 319.986 302.396 319.741 302.206C319.503 302.01 319.21 301.911 318.862 301.911C318.519 301.911 318.229 302.01 317.991 302.206C317.752 302.396 317.569 302.679 317.441 303.053C317.313 303.427 317.248 303.885 317.248 304.425C317.248 304.959 317.313 305.413 317.441 305.787C317.569 306.162 317.752 306.444 317.991 306.634C318.229 306.825 318.519 306.92 318.862 306.92Z"/>
</mask>
<path d="M316.543 306.239L314.695 307.005L314.701 307.018L314.706 307.031L316.543 306.239ZM316.543 302.611L314.703 301.826L314.699 301.836L314.695 301.845L316.543 302.611ZM317.468 301.424L318.61 303.066L318.619 303.06L318.627 303.054L317.468 301.424ZM320.273 301.414L321.415 299.772L321.415 299.772L320.273 301.414ZM321.19 302.602L323.037 301.836L323.037 301.836L321.19 302.602ZM321.19 306.239L323.034 307.013L323.037 307.005L321.19 306.239ZM319.741 306.634L318.513 305.056L318.503 305.064L318.494 305.071L319.741 306.634ZM320.291 305.787L318.399 305.139L318.395 305.153L318.39 305.167L320.291 305.787ZM320.291 303.053L318.39 303.674L318.395 303.688L318.399 303.702L320.291 303.053ZM319.741 302.206L318.469 303.749L318.491 303.767L318.513 303.784L319.741 302.206ZM317.991 302.206L319.239 303.769L319.251 303.759L319.263 303.749L317.991 302.206ZM317.441 303.053L319.333 303.702L319.333 303.702L317.441 303.053ZM317.441 305.787L319.333 305.139L319.333 305.139L317.441 305.787ZM318.862 307.831V305.831C318.696 305.831 318.639 305.795 318.61 305.775L317.468 307.417L316.327 309.059C317.092 309.591 317.964 309.831 318.862 309.831V307.831ZM317.468 307.417L318.61 305.775C318.562 305.741 318.473 305.664 318.379 305.446L316.543 306.239L314.706 307.031C315.052 307.832 315.58 308.54 316.327 309.059L317.468 307.417ZM316.543 306.239L318.39 305.472C318.298 305.251 318.222 304.917 318.222 304.425H316.222H314.222C314.222 305.32 314.359 306.195 314.695 307.005L316.543 306.239ZM316.222 304.425H318.222C318.222 303.933 318.298 303.599 318.39 303.377L316.543 302.611L314.695 301.845C314.359 302.654 314.222 303.53 314.222 304.425H316.222ZM316.543 302.611L318.382 303.396C318.479 303.17 318.568 303.095 318.61 303.066L317.468 301.424L316.327 299.781C315.575 300.304 315.047 301.021 314.703 301.826L316.543 302.611ZM317.468 301.424L318.627 303.054C318.655 303.034 318.706 303 318.862 303V301V299C317.954 299 317.076 299.248 316.31 299.793L317.468 301.424ZM318.862 301V303C319.05 303 319.11 303.042 319.131 303.056L320.273 301.414L321.415 299.772C320.642 299.235 319.761 299 318.862 299V301ZM320.273 301.414L319.131 303.056C319.168 303.082 319.252 303.15 319.342 303.368L321.19 302.602L323.037 301.836C322.7 301.022 322.172 300.299 321.415 299.772L320.273 301.414ZM321.19 302.602L319.342 303.368C319.433 303.588 319.51 303.924 319.51 304.425H321.51H323.51C323.51 303.527 323.374 302.647 323.037 301.836L321.19 302.602ZM321.51 304.425H319.51C319.51 304.917 319.434 305.251 319.342 305.472L321.19 306.239L323.037 307.005C323.373 306.195 323.51 305.32 323.51 304.425H321.51ZM321.19 306.239L319.346 305.464C319.257 305.675 319.174 305.745 319.131 305.775L320.273 307.417L321.415 309.059C322.166 308.537 322.694 307.821 323.034 307.013L321.19 306.239ZM320.273 307.417L319.131 305.775C319.11 305.79 319.05 305.831 318.862 305.831V307.831V309.831C319.761 309.831 320.642 309.597 321.415 309.059L320.273 307.417ZM318.862 306.92V308.92C319.596 308.92 320.347 308.71 320.989 308.197L319.741 306.634L318.494 305.071C318.565 305.015 318.646 304.972 318.726 304.946C318.802 304.921 318.853 304.92 318.862 304.92V306.92ZM319.741 306.634L320.97 308.213C321.605 307.719 321.98 307.059 322.193 306.408L320.291 305.787L318.39 305.167C318.374 305.216 318.367 305.218 318.385 305.191C318.404 305.161 318.445 305.109 318.513 305.056L319.741 306.634ZM320.291 305.787L322.183 306.436C322.403 305.794 322.484 305.108 322.484 304.425H320.484H318.484C318.484 304.81 318.436 305.032 318.399 305.139L320.291 305.787ZM320.484 304.425H322.484C322.484 303.739 322.404 303.048 322.183 302.405L320.291 303.053L318.399 303.702C318.435 303.807 318.484 304.031 318.484 304.425H320.484ZM320.291 303.053L322.193 302.432C321.98 301.782 321.605 301.122 320.97 300.628L319.741 302.206L318.513 303.784C318.445 303.731 318.404 303.679 318.385 303.65C318.367 303.623 318.374 303.624 318.39 303.674L320.291 303.053ZM319.741 302.206L321.013 300.663C320.371 300.133 319.611 299.911 318.862 299.911V301.911V303.911C318.847 303.911 318.79 303.909 318.708 303.882C318.623 303.853 318.54 303.807 318.469 303.749L319.741 302.206ZM318.862 301.911V299.911C318.109 299.911 317.354 300.139 316.719 300.663L317.991 302.206L319.263 303.749C319.196 303.804 319.115 303.85 319.028 303.88C318.944 303.908 318.883 303.911 318.862 303.911V301.911ZM317.991 302.206L316.743 300.643C316.131 301.132 315.764 301.776 315.549 302.405L317.441 303.053L319.333 303.702C319.353 303.643 319.364 303.632 319.352 303.65C319.339 303.67 319.304 303.717 319.239 303.769L317.991 302.206ZM317.441 303.053L315.549 302.405C315.328 303.048 315.248 303.739 315.248 304.425H317.248H319.248C319.248 304.031 319.297 303.807 319.333 303.702L317.441 303.053ZM317.248 304.425H315.248C315.248 305.108 315.329 305.794 315.549 306.436L317.441 305.787L319.333 305.139C319.296 305.032 319.248 304.81 319.248 304.425H317.248ZM317.441 305.787L315.549 306.436C315.764 307.065 316.131 307.709 316.743 308.197L317.991 306.634L319.239 305.071C319.304 305.123 319.339 305.171 319.352 305.191C319.364 305.209 319.353 305.197 319.333 305.139L317.441 305.787ZM317.991 306.634L316.743 308.197C317.379 308.705 318.124 308.92 318.862 308.92V306.92V304.92C318.877 304.92 318.932 304.922 319.01 304.948C319.091 304.975 319.171 305.017 319.239 305.071L317.991 306.634Z" fill="#599D92" mask="url(#path-13-inside-2_21_68)"/>
<mask id="path-15-inside-3_21_68" fill="white">
<path d="M313.181 307.831C312.631 307.831 312.176 307.699 311.816 307.435C311.461 307.171 311.22 306.809 311.092 306.349L312.091 306.285C312.164 306.493 312.289 306.653 312.467 306.763C312.65 306.874 312.888 306.929 313.181 306.929C313.701 306.929 314.092 306.723 314.355 306.312C314.617 305.901 314.752 305.247 314.758 304.351L314.941 304.397C314.782 304.784 314.55 305.079 314.245 305.281C313.939 305.484 313.579 305.585 313.163 305.585C312.741 305.585 312.366 305.493 312.036 305.309C311.706 305.118 311.449 304.854 311.266 304.517C311.089 304.173 311 303.78 311 303.338C311 302.866 311.098 302.455 311.293 302.105C311.489 301.749 311.761 301.476 312.109 301.285C312.463 301.095 312.867 301 313.319 301C314.138 301 314.749 301.27 315.152 301.81C315.555 302.344 315.757 303.102 315.757 304.084C315.757 305.263 315.552 306.183 315.143 306.846C314.74 307.503 314.086 307.831 313.181 307.831ZM313.301 304.729C313.576 304.729 313.817 304.673 314.025 304.563C314.232 304.452 314.394 304.293 314.51 304.084C314.627 303.876 314.685 303.627 314.685 303.338C314.685 303.056 314.63 302.808 314.52 302.593C314.416 302.372 314.26 302.2 314.052 302.077C313.851 301.948 313.612 301.884 313.337 301.884C313.068 301.884 312.833 301.945 312.631 302.068C312.43 302.191 312.274 302.363 312.164 302.584C312.06 302.798 312.008 303.047 312.008 303.329C312.008 303.612 312.06 303.86 312.164 304.075C312.274 304.284 312.427 304.446 312.622 304.563C312.818 304.673 313.044 304.729 313.301 304.729Z"/>
</mask>
<path d="M311.816 307.435L310.621 309.039L310.628 309.044L310.634 309.049L311.816 307.435ZM311.092 306.349L310.963 304.353L308.503 304.512L309.165 306.886L311.092 306.349ZM312.091 306.285L313.978 305.622L313.475 304.191L311.962 304.289L312.091 306.285ZM312.467 306.763L311.408 308.46L311.421 308.468L311.434 308.476L312.467 306.763ZM314.355 306.312L312.669 305.235L312.669 305.235L314.355 306.312ZM314.758 304.351L315.245 302.411L312.775 301.791L312.758 304.338L314.758 304.351ZM314.941 304.397L316.791 305.157L317.669 303.02L315.428 302.457L314.941 304.397ZM312.036 305.309L311.037 307.041L311.049 307.048L311.061 307.055L312.036 305.309ZM311.266 304.517L309.488 305.433L309.498 305.452L309.508 305.471L311.266 304.517ZM311.293 302.105L313.039 303.081L313.043 303.074L313.046 303.068L311.293 302.105ZM312.109 301.285L311.163 299.523L311.157 299.527L311.15 299.53L312.109 301.285ZM315.152 301.81L313.55 303.007L313.556 303.016L315.152 301.81ZM315.143 306.846L313.441 305.795L313.439 305.8L315.143 306.846ZM314.025 304.563L314.964 306.329L314.964 306.329L314.025 304.563ZM314.51 304.084L316.258 305.057L316.258 305.057L314.51 304.084ZM314.52 302.593L312.71 303.444L312.724 303.474L312.739 303.504L314.52 302.593ZM314.052 302.077L312.975 303.762L313.005 303.781L313.035 303.799L314.052 302.077ZM312.631 302.068L313.671 303.776L313.671 303.776L312.631 302.068ZM312.164 302.584L310.374 301.692L310.368 301.703L310.363 301.713L312.164 302.584ZM312.164 304.075L310.363 304.946L310.379 304.977L310.395 305.008L312.164 304.075ZM312.622 304.563L311.598 306.281L311.618 306.293L311.638 306.304L312.622 304.563ZM313.181 307.831V305.831C313.065 305.831 313.005 305.817 312.984 305.811C312.968 305.807 312.978 305.807 312.997 305.822L311.816 307.435L310.634 309.049C311.41 309.617 312.306 309.831 313.181 309.831V307.831ZM311.816 307.435L313.01 305.831C313.01 305.831 313.01 305.831 313.011 305.832C313.012 305.832 313.012 305.833 313.013 305.834C313.015 305.835 313.017 305.838 313.02 305.84C313.025 305.846 313.03 305.852 313.033 305.857C313.036 305.861 313.036 305.862 313.033 305.856C313.031 305.85 313.025 305.836 313.018 305.812L311.092 306.349L309.165 306.886C309.402 307.736 309.882 308.489 310.621 309.039L311.816 307.435ZM311.092 306.349L311.22 308.345L312.219 308.28L312.091 306.285L311.962 304.289L310.963 304.353L311.092 306.349ZM312.091 306.285L310.204 306.948C310.418 307.558 310.822 308.095 311.408 308.46L312.467 306.763L313.525 305.066C313.627 305.13 313.728 305.217 313.813 305.326C313.897 305.433 313.948 305.538 313.978 305.622L312.091 306.285ZM312.467 306.763L311.434 308.476C312.024 308.832 312.654 308.929 313.181 308.929V306.929V304.929C313.122 304.929 313.276 304.916 313.499 305.05L312.467 306.763ZM313.181 306.929V308.929C314.331 308.929 315.382 308.418 316.04 307.389L314.355 306.312L312.669 305.235C312.705 305.18 312.79 305.08 312.934 305.005C313.072 304.932 313.174 304.929 313.181 304.929V306.929ZM314.355 306.312L316.04 307.389C316.614 306.491 316.751 305.368 316.758 304.365L314.758 304.351L312.758 304.338C312.756 304.696 312.727 304.947 312.694 305.111C312.659 305.28 312.63 305.296 312.669 305.235L314.355 306.312ZM314.758 304.351L314.271 306.291L314.454 306.337L314.941 304.397L315.428 302.457L315.245 302.411L314.758 304.351ZM314.941 304.397L313.091 303.637C313.074 303.678 313.066 303.684 313.077 303.67C313.082 303.664 313.091 303.654 313.102 303.643C313.114 303.633 313.127 303.623 313.14 303.614L314.245 305.281L315.35 306.948C316.034 306.494 316.502 305.86 316.791 305.157L314.941 304.397ZM314.245 305.281L313.14 303.614C313.151 303.607 313.163 303.6 313.175 303.594C313.188 303.589 313.198 303.585 313.204 303.583C313.218 303.58 313.208 303.585 313.163 303.585V305.585V307.585C313.918 307.585 314.674 307.396 315.35 306.948L314.245 305.281ZM313.163 305.585V303.585C313.098 303.585 313.06 303.578 313.041 303.573C313.023 303.569 313.015 303.565 313.01 303.562L312.036 305.309L311.061 307.055C311.722 307.424 312.441 307.585 313.163 307.585V305.585ZM312.036 305.309L313.035 303.576C313.032 303.574 313.029 303.573 313.028 303.572C313.028 303.572 313.027 303.571 313.027 303.571C313.027 303.571 313.026 303.571 313.026 303.571C313.026 303.571 313.026 303.571 313.027 303.571C313.027 303.571 313.027 303.571 313.027 303.572C313.028 303.572 313.029 303.573 313.03 303.574C313.031 303.575 313.032 303.576 313.031 303.576C313.031 303.575 313.028 303.571 313.023 303.562L311.266 304.517L309.508 305.471C309.866 306.13 310.384 306.665 311.037 307.041L312.036 305.309ZM311.266 304.517L313.043 303.6C313.032 303.578 313 303.507 313 303.338H311H309C309 304.053 309.145 304.768 309.488 305.433L311.266 304.517ZM311 303.338H313C313 303.146 313.038 303.083 313.039 303.081L311.293 302.105L309.547 301.129C309.158 301.826 309 302.586 309 303.338H311ZM311.293 302.105L313.046 303.068C313.053 303.056 313.057 303.049 313.06 303.046C313.062 303.043 313.062 303.043 313.061 303.044C313.061 303.044 313.06 303.045 313.06 303.045C313.059 303.046 313.059 303.046 313.059 303.046C313.059 303.046 313.06 303.045 313.061 303.045C313.062 303.044 313.065 303.042 313.068 303.041L312.109 301.285L311.15 299.53C310.459 299.908 309.915 300.46 309.54 301.142L311.293 302.105ZM312.109 301.285L313.055 303.048C313.084 303.032 313.155 303 313.319 303V301V299C312.578 299 311.843 299.158 311.163 299.523L312.109 301.285ZM313.319 301V303C313.511 303 313.583 303.032 313.583 303.032C313.584 303.032 313.581 303.031 313.577 303.029C313.573 303.026 313.568 303.023 313.563 303.018C313.551 303.009 313.547 303.003 313.55 303.007L315.152 301.81L316.755 300.614C315.891 299.457 314.617 299 313.319 299V301ZM315.152 301.81L313.556 303.016C313.6 303.074 313.757 303.342 313.757 304.084H315.757H317.757C317.757 302.862 317.511 301.615 316.748 300.605L315.152 301.81ZM315.757 304.084H313.757C313.757 305.068 313.58 305.571 313.441 305.795L315.143 306.846L316.845 307.897C317.525 306.796 317.757 305.457 317.757 304.084H315.757ZM315.143 306.846L313.439 305.8C313.426 305.82 313.422 305.822 313.43 305.814C313.439 305.806 313.448 305.8 313.452 305.798C313.462 305.793 313.394 305.831 313.181 305.831V307.831V309.831C314.639 309.831 316.012 309.253 316.847 307.893L315.143 306.846ZM313.301 304.729V306.729C313.848 306.729 314.422 306.617 314.964 306.329L314.025 304.563L313.086 302.797C313.212 302.73 313.303 302.729 313.301 302.729V304.729ZM314.025 304.563L314.964 306.329C315.517 306.034 315.958 305.597 316.258 305.057L314.51 304.084L312.763 303.112C312.793 303.058 312.837 302.996 312.898 302.936C312.96 302.875 313.025 302.829 313.086 302.797L314.025 304.563ZM314.51 304.084L316.258 305.057C316.571 304.494 316.685 303.897 316.685 303.338H314.685H312.685C312.685 303.357 312.682 303.257 312.763 303.112L314.51 304.084ZM314.685 303.338H316.685C316.685 302.793 316.577 302.222 316.3 301.681L314.52 302.593L312.739 303.504C312.713 303.452 312.698 303.405 312.691 303.372C312.684 303.34 312.685 303.327 312.685 303.338H314.685ZM314.52 302.593L316.33 301.742C316.057 301.162 315.627 300.685 315.07 300.355L314.052 302.077L313.035 303.799C312.973 303.762 312.906 303.71 312.843 303.642C312.781 303.573 312.738 303.503 312.71 303.444L314.52 302.593ZM314.052 302.077L315.129 300.392C314.56 300.028 313.936 299.884 313.337 299.884V301.884V303.884C313.318 303.884 313.269 303.882 313.2 303.863C313.129 303.844 313.051 303.811 312.975 303.762L314.052 302.077ZM313.337 301.884V299.884C312.754 299.884 312.148 300.021 311.592 300.36L312.631 302.068L313.671 303.776C313.601 303.819 313.529 303.848 313.464 303.865C313.4 303.882 313.355 303.884 313.337 303.884V301.884ZM312.631 302.068L311.592 300.36C311.053 300.688 310.644 301.15 310.374 301.692L312.164 302.584L313.954 303.475C313.933 303.518 313.898 303.574 313.845 303.632C313.792 303.691 313.732 303.74 313.671 303.776L312.631 302.068ZM312.164 302.584L310.363 301.713C310.106 302.245 310.008 302.8 310.008 303.329H312.008H314.008C314.008 303.294 314.014 303.352 313.965 303.454L312.164 302.584ZM312.008 303.329H310.008C310.008 303.858 310.106 304.414 310.363 304.946L312.164 304.075L313.965 303.204C314.014 303.306 314.008 303.365 314.008 303.329H312.008ZM312.164 304.075L310.395 305.008C310.67 305.529 311.075 305.969 311.598 306.281L312.622 304.563L313.647 302.845C313.706 302.88 313.765 302.927 313.819 302.984C313.872 303.041 313.909 303.097 313.933 303.142L312.164 304.075ZM312.622 304.563L311.638 306.304C312.175 306.607 312.749 306.729 313.301 306.729V304.729V302.729C313.316 302.729 313.356 302.73 313.413 302.744C313.472 302.759 313.539 302.783 313.606 302.822L312.622 304.563Z" fill="#599D92" mask="url(#path-15-inside-3_21_68)"/>
<path d="M344.991 324.5C345.268 324.505 345.495 324.285 345.5 324.009L345.577 319.509C345.581 319.233 345.361 319.005 345.085 319.001C344.809 318.996 344.581 319.216 344.577 319.492L344.509 323.492L340.509 323.423C340.233 323.419 340.005 323.639 340.001 323.915C339.996 324.191 340.216 324.419 340.492 324.423L344.991 324.5ZM301.847 315.119L302.043 315.578L302.043 315.578L301.847 315.119ZM288.5 324.009C288.505 324.285 288.732 324.505 289.009 324.5L293.508 324.423C293.784 324.419 294.004 324.191 293.999 323.915C293.995 323.639 293.767 323.419 293.491 323.423L289.491 323.492L289.423 319.492C289.419 319.216 289.191 318.996 288.915 319.001C288.639 319.005 288.419 319.233 288.423 319.509L288.5 324.009ZM345 324L345.36 323.653C341.637 319.801 337.217 316.745 332.35 314.659L332.153 315.119L331.957 315.578C336.699 317.611 341.009 320.59 344.64 324.347L345 324ZM332.153 315.119L332.35 314.659C327.484 312.574 322.268 311.5 317 311.5V312V312.5C322.132 312.5 327.214 313.546 331.957 315.578L332.153 315.119ZM317 312V311.5C311.732 311.5 306.516 312.574 301.65 314.659L301.847 315.119L302.043 315.578C306.786 313.546 311.868 312.5 317 312.5V312ZM301.847 315.119L301.65 314.659C296.783 316.745 292.363 319.801 288.64 323.653L289 324L289.36 324.347C292.991 320.59 297.301 317.611 302.043 315.578L301.847 315.119Z" fill="#599D92"/>
<rect x="209.879" y="299.776" width="25.608" height="14.3382" transform="rotate(-45 209.879 299.776)" fill="#3E736A"/>
<path d="M223.172 291.674L224.131 290.711L229.277 293.132L226.866 287.963L227.826 287L232.427 291.622L231.727 292.325L228.357 288.94L230.483 293.562L229.705 294.343L225.104 292.208L228.474 295.593L227.774 296.296L223.172 291.674Z" fill="#599D92"/>
<path d="M225.455 298.834C225.04 299.25 224.58 299.522 224.075 299.647C223.565 299.769 223.04 299.736 222.5 299.55C221.959 299.363 221.445 299.025 220.957 298.534C220.469 298.044 220.13 297.53 219.939 296.991C219.749 296.445 219.715 295.915 219.836 295.403C219.961 294.886 220.233 294.418 220.652 293.997C221.21 293.437 221.789 293.137 222.389 293.098C222.986 293.055 223.595 293.242 224.217 293.658L223.517 294.439C223.137 294.179 222.757 294.062 222.376 294.088C221.996 294.114 221.635 294.298 221.294 294.641C221.018 294.919 220.847 295.234 220.782 295.585C220.717 295.937 220.76 296.306 220.912 296.692C221.063 297.07 221.32 297.441 221.683 297.805C222.046 298.17 222.417 298.43 222.798 298.586C223.178 298.734 223.541 298.773 223.887 298.704C224.232 298.634 224.541 298.463 224.813 298.189C225.181 297.82 225.371 297.438 225.384 297.043C225.397 296.64 225.254 296.232 224.956 295.82L225.734 295.117C226.179 295.746 226.382 296.384 226.343 297.03C226.304 297.677 226.008 298.278 225.455 298.834Z" fill="#599D92"/>
<path d="M219.705 304.401C219.347 304.04 219.085 303.674 218.921 303.3C218.761 302.923 218.692 302.493 218.714 302.011C218.731 301.525 218.841 300.946 219.044 300.273C219.152 299.93 219.221 299.653 219.252 299.44C219.282 299.227 219.278 299.045 219.239 298.893C219.196 298.737 219.103 298.587 218.96 298.444C218.74 298.223 218.493 298.118 218.221 298.131C217.945 298.14 217.672 298.279 217.405 298.548C217.115 298.839 216.962 299.149 216.944 299.479C216.927 299.809 217.046 300.145 217.301 300.488L216.53 301.172C216.11 300.646 215.918 300.097 215.953 299.525C215.987 298.952 216.257 298.411 216.763 297.904C217.087 297.578 217.424 297.357 217.774 297.24C218.12 297.118 218.454 297.099 218.779 297.181C219.107 297.259 219.405 297.433 219.673 297.702C219.911 297.94 220.073 298.181 220.159 298.424C220.245 298.667 220.274 298.952 220.243 299.277C220.213 299.594 220.12 300 219.965 300.495C219.783 301.085 219.69 301.59 219.686 302.011C219.686 302.428 219.762 302.725 219.913 302.903L222.382 300.423L223.024 301.067L219.705 304.401Z" fill="#599D92"/>
</g>
<defs>
<clipPath id="clip0_21_68">
<rect width="448" height="445" fill="white"/>
</clipPath>
</defs>
</svg>
