<svg width="448" height="831" viewBox="0 0 448 831" fill="none" xmlns="http://www.w3.org/2000/svg">
<g clip-path="url(#clip0_21_92)">
<path d="M0.5 645.856V671.856C0.179574 671.856 -0.140734 671.853 -0.460938 671.852L-0.383789 645.855C-0.0893461 645.856 0.205335 645.856 0.5 645.856ZM1.45996 671.852C1.14007 671.853 0.820111 671.856 0.5 671.856V645.856C0.794673 645.856 1.08934 645.856 1.38379 645.855L1.45996 671.852ZM-49.3105 641.622L-53.7197 667.244C-54.3483 667.135 -54.9762 667.025 -55.6035 666.914L-51.0391 641.319C-50.4636 641.421 -49.8872 641.522 -49.3105 641.622ZM56.6025 666.914C55.9752 667.025 55.3473 667.135 54.7188 667.244L50.3105 641.622C50.8871 641.522 51.4636 641.421 52.0391 641.319L56.6025 666.914ZM-98.4043 628.656L-102.815 640.884L-102.814 640.885L-107.225 653.113C-107.823 652.897 -108.421 652.68 -109.019 652.46L-100.05 628.057C-99.5021 628.258 -98.9535 628.458 -98.4043 628.656ZM110.018 652.46C109.421 652.68 108.822 652.897 108.224 653.113L103.814 640.885L99.4043 628.656C99.9535 628.458 100.502 628.258 101.05 628.057L110.018 652.46ZM-144.494 607.299L-157.448 629.842C-158 629.525 -158.551 629.206 -159.102 628.885L-146.013 606.42C-145.508 606.715 -145.001 607.008 -144.494 607.299ZM153.557 617.653L160.101 628.885C159.55 629.206 158.999 629.525 158.447 629.842L145.494 607.299C146.001 607.008 146.508 606.715 147.013 606.42L153.557 617.653ZM-186.192 578.238L-202.854 598.196C-203.344 597.787 -203.833 597.378 -204.319 596.966L-187.536 577.108C-187.089 577.486 -186.642 577.863 -186.192 578.238ZM205.318 596.966C204.832 597.378 204.344 597.787 203.854 598.196L187.192 578.238C187.642 577.863 188.089 577.486 188.536 577.108L205.318 596.966ZM-222.252 542.392L-242.111 559.174C-242.523 558.688 -242.932 558.2 -243.341 557.71L-223.382 541.048C-223.007 541.498 -222.63 541.945 -222.252 542.392ZM244.34 557.71C243.931 558.2 243.522 558.688 243.11 559.174L223.252 542.392C223.63 541.945 224.007 541.498 224.382 541.048L244.34 557.71ZM-251.564 500.869L-262.798 507.413L-262.797 507.414L-274.03 513.957C-274.351 513.406 -274.67 512.855 -274.987 512.303L-252.443 499.35C-252.152 499.857 -251.859 500.364 -251.564 500.869ZM275.986 512.303C275.669 512.855 275.35 513.406 275.029 513.957L263.797 507.414L252.564 500.869C252.859 500.364 253.152 499.857 253.443 499.35L275.986 512.303ZM-273.201 454.906L-297.605 463.874C-297.825 463.276 -298.042 462.678 -298.258 462.08L-273.8 453.26C-273.602 453.809 -273.402 454.358 -273.201 454.906ZM299.257 462.08C299.041 462.678 298.824 463.276 298.604 463.874L274.201 454.906C274.402 454.358 274.602 453.809 274.8 453.26L299.257 462.08ZM-286.463 405.895L-312.059 410.458C-312.17 409.831 -312.281 409.203 -312.389 408.575L-286.766 404.167C-286.666 404.743 -286.565 405.32 -286.463 405.895ZM313.388 408.575C313.28 409.203 313.169 409.831 313.058 410.458L287.463 405.895C287.565 405.32 287.666 404.743 287.766 404.167L313.388 408.575ZM-317 354.356C-317 354.036 -316.998 353.715 -316.997 353.395L-290.999 353.472C-291 353.767 -291 354.061 -291 354.356C-291 354.651 -291 354.945 -290.999 355.24L-316.997 355.316C-316.998 354.996 -317 354.676 -317 354.356ZM317.996 355.316L291.999 355.24C292 354.945 292 354.651 292 354.356C292 354.061 292 353.767 291.999 353.472L317.996 353.395C317.997 353.715 318 354.036 318 354.356C318 354.676 317.997 354.996 317.996 355.316ZM-312.059 298.252L-286.463 302.817C-286.565 303.392 -286.666 303.969 -286.766 304.545L-312.389 300.136C-312.387 300.127 -312.385 300.119 -312.384 300.11L-312.059 298.252ZM313.058 298.252C313.169 298.88 313.28 299.508 313.388 300.136L287.766 304.545C287.666 303.969 287.565 303.392 287.463 302.817L313.058 298.252ZM-273.201 253.806C-273.402 254.354 -273.602 254.902 -273.8 255.452L-286.029 251.041L-298.258 246.631C-298.042 246.033 -297.825 245.434 -297.605 244.837L-273.201 253.806ZM298.604 244.837C298.824 245.434 299.041 246.033 299.257 246.631L287.029 251.042L287.028 251.041L274.8 255.452C274.602 254.902 274.402 254.354 274.201 253.806L298.604 244.837ZM-262.797 201.298L-251.564 207.843C-251.859 208.348 -252.152 208.855 -252.443 209.362L-274.986 196.409L-274.987 196.408C-274.67 195.855 -274.351 195.305 -274.03 194.754L-262.797 201.298ZM275.029 194.754C275.35 195.305 275.669 195.855 275.986 196.408L253.443 209.362C253.152 208.855 252.859 208.348 252.564 207.843L275.029 194.754ZM-242.11 149.538L-222.252 166.32C-222.63 166.767 -223.007 167.214 -223.382 167.664L-243.34 151.001L-243.341 151C-242.932 150.511 -242.523 150.023 -242.111 149.537L-242.11 149.538ZM243.11 149.537C243.522 150.023 243.931 150.511 244.34 151L224.382 167.664C224.007 167.214 223.63 166.767 223.252 166.32L243.11 149.537ZM-202.854 110.516L-186.192 130.474C-186.642 130.849 -187.089 131.226 -187.536 131.604L-204.318 111.746L-204.319 111.745C-203.833 111.333 -203.345 110.924 -202.855 110.515L-202.854 110.516ZM203.854 110.515C204.344 110.924 204.832 111.333 205.318 111.745L188.536 131.604C188.089 131.226 187.642 130.849 187.192 130.474L203.854 110.515ZM-157.447 78.8696L-144.494 101.413C-145.001 101.704 -145.508 101.997 -146.013 102.292L-152.558 91.0581L-159.102 79.8257C-158.551 79.5052 -158 79.1859 -157.448 78.8687L-157.447 78.8696ZM158.447 78.8687C158.999 79.1859 159.55 79.5052 160.101 79.8257L153.558 91.0591L153.557 91.0581L147.013 102.292C146.508 101.997 146.001 101.704 145.494 101.413L158.447 78.8687ZM-98.4043 80.0562C-98.9535 80.2542 -99.5021 80.4535 -100.05 80.6548L-109.019 56.2505C-108.421 56.0311 -107.823 55.8141 -107.225 55.5981L-98.4043 80.0562ZM108.224 55.5981C108.822 55.8141 109.421 56.0311 110.018 56.2505L101.05 80.6548C100.502 80.4535 99.9535 80.2542 99.4043 80.0562L108.224 55.5981ZM-49.3105 67.0903C-49.8871 67.1895 -50.4636 67.2905 -51.0391 67.3931L-55.6035 41.7974C-54.9762 41.6855 -54.3483 41.5754 -53.7197 41.4673L-49.3105 67.0903ZM54.7188 41.4673C55.3473 41.5754 55.9752 41.6855 56.6025 41.7974L52.0391 67.3931C51.4636 67.2905 50.8872 67.1895 50.3105 67.0903L54.7188 41.4673ZM1.45996 36.8589L1.38379 62.8569C1.08935 62.8561 0.794665 62.856 0.5 62.856C0.205327 62.856 -0.0893375 62.8561 -0.383789 62.8569L-0.460938 36.8589C-0.140724 36.8579 0.179564 36.856 0.5 36.856C0.820099 36.856 1.14008 36.8579 1.45996 36.8589Z" fill="#599D92"/>
<path d="M0.5 661.856V671.856C0.162309 671.856 -0.175251 671.853 -0.512695 671.852L-0.481445 661.854C-0.15442 661.855 0.172728 661.856 0.5 661.856ZM1.51172 671.852C1.1746 671.853 0.837368 671.856 0.5 671.856V661.856C0.827272 661.856 1.15442 661.855 1.48145 661.854L1.51172 671.852ZM-9.28418 661.704L-9.59668 671.698C-10.2671 671.677 -10.937 671.654 -11.6064 671.628L-11.2324 661.636C-10.5837 661.661 -9.93392 661.683 -9.28418 661.704ZM12.2324 661.636L12.6055 671.628C11.9361 671.654 11.2662 671.677 10.5957 671.698L10.2842 661.704C10.9339 661.683 11.5837 661.661 12.2324 661.636ZM-20.0068 661.183L-20.6631 671.16C-21.3349 671.115 -22.0061 671.069 -22.6768 671.021L-21.957 661.049C-21.3076 661.096 -20.6574 661.14 -20.0068 661.183ZM23.6758 671.021C23.0051 671.069 22.3339 671.115 21.6621 671.16L21.0068 661.183C21.6574 661.14 22.3076 661.096 22.957 661.049L23.6758 671.021ZM-30.6914 660.294L-31.6934 670.243C-32.3639 670.175 -33.0338 670.105 -33.7031 670.034L-32.6387 660.092C-31.9903 660.162 -31.341 660.229 -30.6914 660.294ZM34.7021 670.034C34.0328 670.105 33.3629 670.175 32.6924 670.243L31.6914 660.294C32.341 660.229 32.9903 660.162 33.6387 660.092L34.7021 670.034ZM-41.3662 659.031L-42.041 663.984L-42.04 663.985L-42.7148 668.938C-43.3792 668.848 -44.043 668.755 -44.7061 668.661L-43.2949 658.762C-42.6527 658.854 -42.0098 658.943 -41.3662 659.031ZM45.7051 668.661C45.042 668.755 44.3783 668.848 43.7139 668.938L43.6543 668.493L43.04 663.985L42.3662 659.031C43.0098 658.943 43.6527 658.854 44.2949 658.762L45.7051 668.661ZM-51.9746 657.398L-53.668 667.252C-54.3308 667.139 -54.9929 667.023 -55.6543 666.905L-53.8975 657.061C-53.2572 657.175 -52.6163 657.288 -51.9746 657.398ZM55.7754 661.983L56.6533 666.905C55.9923 667.023 55.3304 667.139 54.668 667.252L54.4834 666.172L53.8213 662.326L52.9746 657.398C53.6163 657.288 54.2572 657.175 54.8975 657.061L55.7754 661.983ZM-62.5078 655.397L-64.5469 665.185C-65.2065 665.048 -65.8653 664.909 -66.5234 664.767L-66.3545 663.985L-64.4229 654.992C-63.7855 655.129 -63.1466 655.264 -62.5078 655.397ZM67.5225 664.767C66.8644 664.909 66.2055 665.048 65.5459 665.185L63.5078 655.397C64.1466 655.264 64.7855 655.129 65.4229 654.992L67.5225 664.767ZM-72.9814 653.024L-75.3623 662.735C-76.0135 662.575 -76.6638 662.413 -77.3135 662.25L-74.8701 652.554C-74.2413 652.713 -73.6118 652.869 -72.9814 653.024ZM78.3125 662.25C77.6629 662.413 77.0125 662.575 76.3613 662.735L73.9814 653.024C74.6118 652.869 75.2413 652.713 75.8701 652.554L78.3125 662.25ZM-83.3604 650.285L-86.0811 659.906C-86.7276 659.723 -87.3736 659.539 -88.0186 659.352L-85.2354 649.748C-84.6111 649.928 -83.9862 650.108 -83.3604 650.285ZM89.0176 659.352C88.3727 659.539 87.7267 659.723 87.0801 659.906L84.3604 650.285C84.9862 650.108 85.6111 649.928 86.2354 649.748L89.0176 659.352ZM-93.6289 647.184L-96.6865 656.704C-97.3274 656.498 -97.9674 656.29 -98.6064 656.081L-95.4873 646.582C-94.8688 646.785 -94.2491 646.985 -93.6289 647.184ZM99.6055 656.081C98.9664 656.29 98.3264 656.498 97.6855 656.704L94.6289 647.184C95.2491 646.985 95.8688 646.785 96.4873 646.582L99.6055 656.081ZM-103.785 643.724L-107.176 653.13C-107.807 652.903 -108.438 652.673 -109.067 652.442L-105.616 643.058C-105.007 643.282 -104.396 643.504 -103.785 643.724ZM110.066 652.442C109.437 652.673 108.806 652.903 108.175 653.13L104.785 643.724C105.396 643.504 106.007 643.282 106.616 643.058L110.066 652.442ZM-113.82 639.907L-115.681 644.546L-115.68 644.547L-117.54 649.188C-118.163 648.938 -118.785 648.687 -119.406 648.433L-115.628 639.175C-115.026 639.421 -114.424 639.665 -113.82 639.907ZM120.405 648.433C119.784 648.687 119.162 648.938 118.539 649.188L116.68 644.547L114.82 639.907C115.424 639.665 116.026 639.421 116.628 639.175L120.405 648.433ZM-123.709 635.741L-127.753 644.885C-128.368 644.614 -128.981 644.339 -129.594 644.064L-125.492 634.946C-124.899 635.213 -124.304 635.478 -123.709 635.741ZM130.593 644.064C129.98 644.339 129.367 644.614 128.752 644.885L124.709 635.741C125.304 635.478 125.899 635.213 126.492 634.946L130.593 644.064ZM-133.443 631.232L-137.805 640.229C-138.41 639.935 -139.015 639.64 -139.618 639.342L-135.199 630.374C-134.615 630.661 -134.03 630.948 -133.443 631.232ZM140.617 639.342C140.014 639.64 139.409 639.935 138.804 640.229L134.443 631.232C135.03 630.948 135.615 630.661 136.199 630.374L140.617 639.342ZM-143.021 626.38L-147.695 635.219C-148.289 634.905 -148.881 634.589 -149.473 634.272L-144.742 625.463C-144.17 625.771 -143.596 626.077 -143.021 626.38ZM150.472 634.272C149.88 634.589 149.288 634.905 148.694 635.219L144.021 626.38C144.596 626.077 145.17 625.771 145.742 625.463L150.472 634.272ZM-152.422 621.197L-157.402 629.868C-157.985 629.533 -158.566 629.197 -159.146 628.859L-154.111 620.22C-153.549 620.548 -152.986 620.873 -152.422 621.197ZM160.146 628.859C159.565 629.197 158.984 629.533 158.401 629.868L153.422 621.197C153.986 620.873 154.549 620.548 155.111 620.22L160.146 628.859ZM-161.634 615.69L-164.274 619.935L-164.273 619.936L-166.914 624.181C-167.485 623.826 -168.055 623.469 -168.623 623.111L-163.289 614.654C-162.739 615.001 -162.187 615.346 -161.634 615.69ZM169.622 623.111C169.054 623.469 168.484 623.826 167.913 624.181L165.273 619.936L162.634 615.69C163.187 615.346 163.739 615.001 164.289 614.654L169.622 623.111ZM-170.648 609.865L-176.222 618.167C-176.78 617.792 -177.336 617.416 -177.892 617.038L-172.266 608.772C-171.728 609.138 -171.189 609.502 -170.648 609.865ZM178.891 617.038C178.335 617.416 177.779 617.792 177.221 618.167L174.435 614.016L171.648 609.865C172.189 609.502 172.728 609.138 173.266 608.772L178.891 617.038ZM-179.458 603.726L-182.389 607.778L-182.388 607.779L-185.317 611.829C-185.862 611.435 -186.405 611.04 -186.946 610.643L-181.036 602.579C-180.512 602.963 -179.985 603.345 -179.458 603.726ZM187.945 610.643C187.404 611.04 186.861 611.435 186.316 611.829L183.388 607.779L180.458 603.726C180.985 603.345 181.512 602.963 182.036 602.579L187.945 610.643ZM-188.048 597.287L-194.185 605.181C-194.715 604.769 -195.244 604.355 -195.771 603.939L-189.585 596.083C-189.074 596.486 -188.562 596.887 -188.048 597.287ZM193.678 600.011L196.771 603.939C196.243 604.355 195.714 604.769 195.184 605.181L189.048 597.287C189.562 596.887 190.074 596.486 190.585 596.083L193.678 600.011ZM-196.407 590.552L-202.814 598.229C-203.33 597.798 -203.845 597.366 -204.358 596.932L-197.902 589.296C-197.405 589.717 -196.907 590.135 -196.407 590.552ZM202.13 593.115L205.357 596.932C204.844 597.366 204.33 597.798 203.813 598.229L197.407 590.552C197.907 590.135 198.405 589.717 198.902 589.296L202.13 593.115ZM-204.529 583.531L-211.199 590.979C-211.699 590.531 -212.199 590.082 -212.696 589.631L-205.979 582.224C-205.498 582.661 -205.014 583.097 -204.529 583.531ZM213.696 589.63C213.199 590.082 212.699 590.531 212.198 590.979L205.529 583.531C206.014 583.097 206.498 582.661 206.979 582.224L213.696 589.63ZM-212.403 576.231L-219.327 583.444C-219.812 582.979 -220.296 582.513 -220.777 582.044L-213.808 574.875C-213.341 575.328 -212.873 575.78 -212.403 576.231ZM221.776 582.044C221.295 582.513 220.811 582.979 220.326 583.444L213.403 576.231C213.873 575.78 214.341 575.328 214.808 574.875L221.776 582.044ZM-220.019 568.664L-227.189 575.632C-227.658 575.151 -228.124 574.667 -228.589 574.182L-221.375 567.259C-220.924 567.729 -220.472 568.197 -220.019 568.664ZM229.588 574.182C229.123 574.667 228.657 575.151 228.188 575.632L221.019 568.664C221.472 568.197 221.924 567.729 222.375 567.259L229.588 574.182ZM-227.368 560.835L-234.775 567.552C-235.227 567.055 -235.676 566.555 -236.124 566.054L-228.675 559.385C-228.241 559.87 -227.805 560.354 -227.368 560.835ZM237.123 566.054C236.675 566.554 236.226 567.054 235.775 567.551L228.368 560.835C228.805 560.354 229.241 559.87 229.675 559.385L237.123 566.054ZM-234.44 552.758L-238.26 555.986L-238.259 555.987L-242.077 559.213C-242.511 558.7 -242.943 558.185 -243.374 557.669L-235.696 551.263C-235.279 551.763 -234.861 552.261 -234.44 552.758ZM244.373 557.669C243.942 558.185 243.51 558.7 243.076 559.213L239.259 555.987L235.44 552.758C235.861 552.261 236.279 551.763 236.696 551.263L244.373 557.669ZM-241.228 544.441L-245.156 547.534L-245.155 547.535L-249.084 550.626C-249.5 550.099 -249.914 549.57 -250.326 549.04L-242.431 542.904C-242.031 543.418 -241.63 543.93 -241.228 544.441ZM251.325 549.04C250.913 549.57 250.499 550.099 250.083 550.626L246.155 547.535L242.228 544.441C242.63 543.93 243.031 543.418 243.431 542.904L251.325 549.04ZM-247.723 535.892L-255.788 541.801C-256.185 541.26 -256.58 540.717 -256.974 540.172L-248.87 534.314C-248.489 534.841 -248.107 535.367 -247.723 535.892ZM253.922 537.244L257.973 540.172C257.579 540.717 257.184 541.26 256.787 541.801L248.723 535.892C249.107 535.367 249.489 534.841 249.87 534.314L253.922 537.244ZM-253.916 527.122L-262.183 532.747C-262.561 532.191 -262.937 531.635 -263.312 531.077L-255.009 525.504C-254.646 526.045 -254.282 526.584 -253.916 527.122ZM264.311 531.077C263.936 531.635 263.56 532.191 263.182 532.747L254.916 527.122C255.282 526.584 255.646 526.045 256.009 525.504L264.311 531.077ZM-259.798 518.145L-268.256 523.478C-268.614 522.91 -268.971 522.34 -269.326 521.769L-260.834 516.49C-260.49 517.043 -260.145 517.595 -259.798 518.145ZM266.079 519.129L270.325 521.769C269.97 522.34 269.613 522.91 269.255 523.478L260.798 518.145C261.145 517.595 261.49 517.043 261.834 516.49L266.079 519.129ZM-265.364 508.967L-269.685 511.484L-269.684 511.485L-274.004 514.001C-274.342 513.421 -274.678 512.84 -275.013 512.257L-266.341 507.278C-266.017 507.842 -265.692 508.405 -265.364 508.967ZM276.012 512.257C275.677 512.84 275.341 513.421 275.003 514.001L270.684 511.485L266.364 508.967C266.692 508.405 267.017 507.842 267.341 507.278L276.012 512.257ZM-270.607 499.598L-279.417 504.328C-279.734 503.736 -280.05 503.144 -280.364 502.55L-271.524 497.877C-271.221 498.452 -270.915 499.026 -270.607 499.598ZM281.363 502.55C281.049 503.144 280.734 503.736 280.416 504.328L271.607 499.598C271.915 499.026 272.221 498.452 272.524 497.877L281.363 502.55ZM-275.518 490.055L-284.487 494.473C-284.785 493.87 -285.08 493.265 -285.374 492.66L-276.376 488.299C-276.092 488.886 -275.805 489.471 -275.518 490.055ZM286.373 492.66C286.079 493.265 285.784 493.87 285.486 494.473L276.518 490.055C276.805 489.471 277.092 488.886 277.376 488.299L286.373 492.66ZM-280.09 480.348L-284.65 482.398L-284.649 482.399L-289.209 484.449C-289.485 483.836 -289.759 483.223 -290.03 482.608L-280.885 478.565C-280.622 479.16 -280.357 479.755 -280.09 480.348ZM291.029 482.608C290.758 483.223 290.484 483.836 290.208 484.449L285.649 482.399L281.09 480.348C281.357 479.755 281.622 479.16 281.885 478.565L291.029 482.608ZM-284.319 470.484L-293.578 474.261C-293.832 473.64 -294.083 473.018 -294.333 472.395L-285.051 468.676C-284.809 469.28 -284.565 469.882 -284.319 470.484ZM290.69 470.536L295.332 472.395C295.082 473.018 294.831 473.64 294.577 474.261L285.319 470.484C285.565 469.882 285.809 469.28 286.051 468.676L290.69 470.536ZM-288.202 460.472L-297.587 463.922C-297.818 463.293 -298.048 462.662 -298.275 462.031L-288.868 458.641C-288.648 459.252 -288.426 459.863 -288.202 460.472ZM299.274 462.031C299.047 462.662 298.817 463.293 298.586 463.922L289.202 460.472C289.426 459.863 289.648 459.252 289.868 458.641L299.274 462.031ZM-291.726 450.343L-296.477 451.902L-296.476 451.903L-301.226 453.461C-301.435 452.822 -301.643 452.182 -301.849 451.542L-292.328 448.485C-292.129 449.105 -291.929 449.725 -291.726 450.343ZM302.848 451.542C302.642 452.182 302.434 452.822 302.225 453.461L297.476 451.903L292.726 450.343C292.929 449.725 293.129 449.105 293.328 448.485L302.848 451.542ZM-294.892 440.091L-304.497 442.874C-304.684 442.229 -304.868 441.583 -305.051 440.936L-295.429 438.216C-295.252 438.842 -295.072 439.467 -294.892 440.091ZM306.05 440.936C305.867 441.583 305.683 442.229 305.496 442.874L295.892 440.091C296.072 439.467 296.252 438.842 296.429 438.216L306.05 440.936ZM-297.698 429.726L-307.395 432.168C-307.558 431.519 -307.72 430.868 -307.88 430.217L-298.168 427.837C-298.013 428.468 -297.857 429.097 -297.698 429.726ZM308.879 430.217C308.719 430.869 308.557 431.519 308.394 432.168L298.698 429.726C298.857 429.097 299.013 428.468 299.168 427.837L308.879 430.217ZM-300.136 419.279L-309.912 421.378C-310.054 420.72 -310.193 420.061 -310.33 419.402L-309.735 419.279L-300.541 417.364C-300.408 418.003 -300.273 418.641 -300.136 419.279ZM310.735 419.279L311.329 419.402C311.192 420.061 311.053 420.72 310.911 421.378L301.136 419.279C301.273 418.641 301.408 418.003 301.541 417.364L310.735 419.279ZM-302.205 408.753L-307.128 409.631L-307.127 409.632L-312.05 410.509C-312.168 409.848 -312.284 409.186 -312.397 408.524L-302.542 406.831C-302.432 407.472 -302.319 408.113 -302.205 408.753ZM313.396 408.523C313.283 409.186 313.167 409.848 313.049 410.509L308.127 409.632L303.205 408.753C303.319 408.113 303.432 407.472 303.542 406.831L313.396 408.523ZM-303.906 398.151L-308.857 398.856L-308.856 398.857L-313.806 399.561C-313.9 398.898 -313.993 398.234 -314.083 397.57L-304.175 396.222C-304.087 396.866 -303.998 397.509 -303.906 398.151ZM310.128 396.896L315.082 397.57C314.992 398.234 314.899 398.898 314.805 399.561L309.856 398.857L304.906 398.151C304.998 397.509 305.087 396.866 305.175 396.222L310.128 396.896ZM-305.236 387.495L-315.179 388.558C-315.25 387.889 -315.32 387.219 -315.388 386.548L-305.438 385.547C-305.373 386.197 -305.306 386.846 -305.236 387.495ZM316.387 386.548C316.319 387.219 316.249 387.889 316.178 388.558L311.208 388.027L306.236 387.495C306.306 386.846 306.373 386.197 306.438 385.547L316.387 386.548ZM-306.193 376.813L-316.166 377.532C-316.214 376.861 -316.26 376.19 -316.305 375.518L-306.327 374.863C-306.284 375.513 -306.24 376.164 -306.193 376.813ZM317.304 375.518C317.26 376.19 317.213 376.861 317.165 377.532L307.193 376.813C307.24 376.164 307.284 375.513 307.327 374.863L317.304 375.518ZM-306.78 366.088L-311.778 366.275L-311.777 366.276L-316.773 366.461C-316.799 365.792 -316.822 365.122 -316.843 364.452L-306.848 364.14C-306.827 364.79 -306.805 365.44 -306.78 366.088ZM317.842 364.452C317.821 365.122 317.798 365.792 317.772 366.461L312.777 366.276L307.78 366.088C307.805 365.44 307.827 364.79 307.848 364.14L317.842 364.452ZM-317 354.356C-317 354.018 -316.998 353.681 -316.997 353.343L-306.998 353.375C-306.999 353.702 -307 354.029 -307 354.356C-307 354.683 -306.999 355.01 -306.998 355.337L-316.997 355.368C-316.998 355.031 -317 354.693 -317 354.356ZM317.996 355.368L307.998 355.337C307.999 355.01 308 354.683 308 354.356C308 354.029 307.999 353.702 307.998 353.375L317.996 353.343C317.997 353.681 318 354.018 318 354.356C318 354.693 317.997 355.031 317.996 355.368ZM-316.773 342.25L-311.777 342.436L-306.78 342.624C-306.805 343.272 -306.827 343.922 -306.848 344.572L-316.843 344.259C-316.841 344.213 -316.839 344.167 -316.838 344.121L-316.773 342.25ZM317.772 342.25C317.798 342.919 317.821 343.589 317.842 344.259L307.848 344.572C307.827 343.922 307.805 343.272 307.78 342.624L317.772 342.25ZM-306.193 331.899C-306.24 332.548 -306.284 333.199 -306.327 333.849L-316.305 333.193C-316.26 332.521 -316.214 331.85 -316.166 331.179L-306.193 331.899ZM317.165 331.179C317.213 331.85 317.26 332.521 317.304 333.193L307.327 333.849C307.284 333.199 307.24 332.548 307.193 331.899L317.165 331.179ZM-315.179 320.153L-305.236 321.217C-305.306 321.866 -305.373 322.515 -305.438 323.165L-315.388 322.163C-315.379 322.073 -315.369 321.983 -315.36 321.893L-315.179 320.153ZM316.178 320.153C316.249 320.822 316.319 321.492 316.387 322.163L306.438 323.165C306.373 322.515 306.306 321.866 306.236 321.217L316.178 320.153ZM-308.856 309.855L-303.906 310.561C-303.998 311.203 -304.087 311.846 -304.175 312.49L-309.129 311.815L-314.083 311.141C-313.993 310.477 -313.9 309.813 -313.806 309.15L-308.856 309.855ZM314.805 309.15C314.899 309.813 314.992 310.477 315.082 311.141L310.129 311.816L310.128 311.815L305.175 312.49C305.087 311.846 304.998 311.203 304.906 310.561L314.805 309.15ZM-312.05 298.202L-307.127 299.08L-302.205 299.958C-302.319 300.599 -302.432 301.24 -302.542 301.881L-312.397 300.188C-312.393 300.162 -312.388 300.136 -312.384 300.11L-312.05 298.202ZM313.049 298.202C313.167 298.863 313.283 299.525 313.396 300.187L308.47 301.035L308.469 301.034L303.542 301.881C303.432 301.24 303.319 300.599 303.205 299.958L313.049 298.202ZM-300.136 289.433C-300.273 290.07 -300.408 290.709 -300.541 291.348L-310.33 289.309C-310.193 288.649 -310.054 287.991 -309.912 287.333L-300.136 289.433ZM310.911 287.333C311.053 287.991 311.192 288.649 311.329 289.309L301.541 291.348C301.408 290.709 301.273 290.07 301.136 289.433L310.911 287.333ZM-307.395 276.542L-297.698 278.986C-297.857 279.615 -298.013 280.244 -298.168 280.875L-307.88 278.494C-307.751 277.966 -307.62 277.439 -307.488 276.913L-307.395 276.542ZM308.394 276.542C308.557 277.192 308.719 277.842 308.879 278.494L299.168 280.875C299.013 280.244 298.857 279.615 298.698 278.986L308.394 276.542ZM-294.892 268.621C-295.072 269.245 -295.252 269.87 -295.429 270.496L-305.051 267.775C-304.868 267.128 -304.684 266.482 -304.497 265.837L-294.892 268.621ZM305.496 265.837C305.683 266.482 305.867 267.128 306.05 267.775L301.24 269.135L301.239 269.134L296.429 270.496C296.252 269.87 296.072 269.245 295.892 268.621L305.496 265.837ZM-291.726 258.369C-291.929 258.987 -292.129 259.607 -292.328 260.227L-301.849 257.169C-301.643 256.529 -301.435 255.889 -301.226 255.25L-291.726 258.369ZM302.225 255.25C302.434 255.889 302.642 256.529 302.848 257.169L293.328 260.227C293.129 259.607 292.929 258.987 292.726 258.369L302.225 255.25ZM-297.587 244.789L-288.202 248.24C-288.426 248.849 -288.648 249.46 -288.868 250.071L-298.275 246.68C-298.096 246.183 -297.916 245.685 -297.734 245.189L-297.587 244.789ZM298.586 244.789C298.817 245.418 299.047 246.049 299.274 246.68L289.868 250.071C289.648 249.46 289.426 248.849 289.202 248.24L298.586 244.789ZM-293.578 234.45L-284.319 238.228C-284.565 238.83 -284.809 239.432 -285.051 240.036L-289.691 238.175L-294.333 236.316C-294.309 236.256 -294.285 236.197 -294.261 236.137L-293.578 234.45ZM294.577 234.45C294.831 235.071 295.082 235.693 295.332 236.316L290.691 238.176L290.69 238.175L286.051 240.036C285.809 239.432 285.565 238.83 285.319 238.228L294.577 234.45ZM-284.649 226.313L-280.09 228.364C-280.357 228.957 -280.622 229.552 -280.885 230.147L-290.03 226.103C-289.759 225.488 -289.485 224.875 -289.209 224.262L-284.649 226.313ZM290.208 224.262C290.484 224.875 290.758 225.488 291.029 226.103L281.885 230.147C281.622 229.552 281.357 228.957 281.09 228.364L290.208 224.262ZM-275.518 218.657C-275.805 219.241 -276.092 219.826 -276.376 220.413L-285.374 216.051C-285.08 215.446 -284.785 214.841 -284.487 214.238L-275.518 218.657ZM285.486 214.238C285.784 214.841 286.079 215.446 286.373 216.051L277.376 220.413C277.092 219.826 276.805 219.241 276.518 218.657L285.486 214.238ZM-270.607 209.114C-270.915 209.686 -271.221 210.26 -271.524 210.834L-280.364 206.161C-280.05 205.567 -279.734 204.975 -279.417 204.383L-270.607 209.114ZM280.416 204.383C280.734 204.975 281.049 205.567 281.363 206.161L272.524 210.834C272.221 210.26 271.915 209.686 271.607 209.114L280.416 204.383ZM-274.004 194.709L-269.684 197.227L-265.364 199.745C-265.692 200.306 -266.017 200.87 -266.341 201.434L-275.013 196.454C-274.987 196.408 -274.961 196.363 -274.935 196.318L-274.004 194.709ZM275.003 194.709C275.341 195.29 275.677 195.871 276.012 196.454L267.341 201.434C267.017 200.87 266.692 200.306 266.364 199.745L275.003 194.709ZM-259.798 190.567C-260.145 191.117 -260.49 191.669 -260.834 192.222L-265.08 189.582L-269.326 186.942C-268.971 186.371 -268.614 185.801 -268.256 185.233L-259.798 190.567ZM269.255 185.233C269.613 185.801 269.97 186.371 270.325 186.942L266.08 189.583L266.079 189.582L261.834 192.222C261.49 191.669 261.145 191.117 260.798 190.567L269.255 185.233ZM-253.916 181.59C-254.282 182.128 -254.646 182.667 -255.009 183.208L-263.312 177.634C-262.937 177.076 -262.561 176.52 -262.183 175.964L-253.916 181.59ZM263.182 175.964C263.56 176.52 263.936 177.076 264.311 177.634L260.16 180.421L260.159 180.42L256.009 183.208C255.646 182.667 255.282 182.128 254.916 181.59L263.182 175.964ZM-247.723 172.82C-248.107 173.344 -248.489 173.871 -248.87 174.398L-256.974 168.539C-256.58 167.994 -256.185 167.451 -255.788 166.91L-247.723 172.82ZM256.787 166.91C257.184 167.451 257.579 167.994 257.973 168.539L249.87 174.398C249.489 173.871 249.107 173.344 248.723 172.82L256.787 166.91ZM-245.155 161.177L-241.228 164.271C-241.63 164.782 -242.031 165.294 -242.431 165.808L-250.326 159.671C-249.914 159.141 -249.5 158.612 -249.084 158.084L-245.155 161.177ZM250.083 158.084C250.499 158.612 250.913 159.141 251.325 159.671L243.431 165.808C243.031 165.294 242.63 164.782 242.228 164.271L250.083 158.084ZM-242.077 149.498L-238.259 152.725L-234.44 155.954C-234.861 156.451 -235.279 156.949 -235.696 157.449L-243.374 151.042C-243.343 151.004 -243.312 150.967 -243.281 150.93L-242.077 149.498ZM243.076 149.498C243.51 150.011 243.942 150.525 244.373 151.042L236.696 157.449C236.279 156.949 235.861 156.451 235.44 155.954L243.076 149.498ZM-227.368 147.876C-227.805 148.358 -228.241 148.842 -228.675 149.327L-236.124 142.657C-235.676 142.156 -235.227 141.657 -234.776 141.16L-227.368 147.876ZM235.774 141.159C236.226 141.656 236.675 142.156 237.123 142.657L229.675 149.327C229.241 148.842 228.805 148.358 228.368 147.876L235.774 141.159ZM-220.019 140.048C-220.472 140.515 -220.924 140.983 -221.375 141.453L-228.589 134.529C-228.124 134.044 -227.658 133.56 -227.189 133.079L-220.019 140.048ZM228.188 133.079C228.657 133.56 229.123 134.044 229.588 134.529L222.375 141.453C221.924 140.983 221.472 140.515 221.019 140.048L228.188 133.079ZM-212.403 132.481C-212.873 132.932 -213.341 133.384 -213.808 133.837L-220.777 126.667C-220.296 126.198 -219.812 125.732 -219.327 125.267L-212.403 132.481ZM220.326 125.267C220.811 125.732 221.295 126.198 221.776 126.667L214.808 133.837C214.341 133.384 213.873 132.932 213.403 132.481L220.326 125.267ZM-204.529 125.181C-205.014 125.615 -205.498 126.051 -205.979 126.488L-212.697 119.081C-212.2 118.629 -211.7 118.18 -211.199 117.732L-204.529 125.181ZM212.198 117.732C212.699 118.18 213.198 118.629 213.695 119.08L206.979 126.488C206.498 126.051 206.014 125.615 205.529 125.181L212.198 117.732ZM-202.814 110.482L-196.407 118.16C-196.907 118.577 -197.405 118.995 -197.902 119.416L-204.358 111.779C-203.882 111.376 -203.405 110.975 -202.926 110.575L-202.814 110.482ZM203.813 110.482C204.33 110.913 204.844 111.345 205.357 111.779L198.902 119.416C198.405 118.995 197.907 118.577 197.407 118.16L203.813 110.482ZM-188.048 111.425C-188.562 111.825 -189.074 112.226 -189.585 112.628L-192.679 108.7L-195.771 104.772C-195.244 104.356 -194.715 103.942 -194.185 103.53L-188.048 111.425ZM195.184 103.53C195.714 103.942 196.243 104.356 196.771 104.772L193.679 108.701L193.678 108.7L190.585 112.628C190.074 112.226 189.562 111.825 189.048 111.425L195.184 103.53ZM-179.458 104.986C-179.985 105.367 -180.512 105.749 -181.036 106.133L-186.946 98.0679C-186.405 97.671 -185.862 97.2758 -185.317 96.8823L-179.458 104.986ZM186.316 96.8823C186.861 97.2758 187.404 97.671 187.945 98.0679L182.036 106.133C181.512 105.749 180.985 105.367 180.458 104.986L186.316 96.8823ZM-173.435 94.6958L-170.648 98.8472C-171.189 99.2098 -171.728 99.574 -172.266 99.9399L-177.892 91.6733C-177.336 91.2954 -176.78 90.9189 -176.222 90.5444L-173.435 94.6958ZM177.221 90.5444C177.779 90.9189 178.335 91.2954 178.891 91.6733L173.266 99.9399C172.728 99.574 172.189 99.2098 171.648 98.8472L177.221 90.5444ZM-164.273 88.7759L-161.634 93.022C-162.187 93.3657 -162.739 93.711 -163.289 94.0581L-168.623 85.6001C-168.055 85.2416 -167.485 84.8848 -166.914 84.5298L-164.273 88.7759ZM167.913 84.5298C168.484 84.8848 169.054 85.2416 169.622 85.6001L164.289 94.0581C163.739 93.711 163.187 93.3657 162.634 93.022L167.913 84.5298ZM-152.422 87.5151C-152.986 87.8391 -153.549 88.1642 -154.111 88.4917L-159.146 79.8521C-158.566 79.5139 -157.985 79.1778 -157.402 78.8433L-152.422 87.5151ZM158.401 78.8433C158.984 79.1778 159.565 79.5139 160.146 79.8521L155.111 88.4917C154.549 88.1642 153.986 87.8391 153.422 87.5151L158.401 78.8433ZM-143.021 82.3315C-143.596 82.6354 -144.17 82.9412 -144.742 83.2485L-149.473 74.439C-148.881 74.1215 -148.289 73.8056 -147.695 73.4917L-143.021 82.3315ZM148.694 73.4917C149.288 73.8056 149.88 74.1215 150.472 74.439L145.742 83.2485C145.17 82.9412 144.596 82.6354 144.021 82.3315L148.694 73.4917ZM-133.443 77.48C-134.03 77.7641 -134.615 78.0506 -135.199 78.3384L-139.618 69.3687C-139.015 69.0714 -138.41 68.7755 -137.805 68.4819L-133.443 77.48ZM138.804 68.4819C139.409 68.7755 140.014 69.0714 140.617 69.3687L136.199 78.3384C135.615 78.0506 135.03 77.7641 134.443 77.48L138.804 68.4819ZM-123.709 72.9712C-124.304 73.2344 -124.899 73.4993 -125.492 73.7661L-129.594 64.647C-128.981 64.3714 -128.368 64.0974 -127.753 63.8257L-123.709 72.9712ZM128.752 63.8257C129.367 64.0974 129.98 64.3714 130.593 64.647L126.492 73.7661C125.899 73.4993 125.304 73.2344 124.709 72.9712L128.752 63.8257ZM-113.82 68.8052C-114.424 69.047 -115.026 69.2911 -115.628 69.5366L-119.406 60.2778C-118.785 60.0243 -118.163 59.7726 -117.54 59.5229L-113.82 68.8052ZM118.539 59.5229C119.162 59.7726 119.784 60.0243 120.405 60.2778L116.628 69.5366C116.026 69.2911 115.424 69.047 114.82 68.8052L118.539 59.5229ZM-103.785 64.9878C-104.396 65.2081 -105.007 65.4297 -105.616 65.6538L-109.067 56.269C-108.438 56.0376 -107.807 55.8082 -107.176 55.5806L-103.785 64.9878ZM108.175 55.5806C108.806 55.8082 109.437 56.0376 110.066 56.269L106.616 65.6538C106.007 65.4297 105.396 65.2081 104.785 64.9878L108.175 55.5806ZM-93.6289 61.5278C-94.2491 61.727 -94.8688 61.9273 -95.4873 62.1304L-98.6064 52.6304C-97.9674 52.4206 -97.3274 52.2131 -96.6865 52.0073L-93.6289 61.5278ZM97.6855 52.0073C98.3264 52.2131 98.9664 52.4206 99.6055 52.6304L96.4873 62.1304C95.8688 61.9273 95.2491 61.727 94.6289 61.5278L97.6855 52.0073ZM-83.3604 58.4272C-83.9862 58.6042 -84.6111 58.7835 -85.2354 58.9644L-88.0186 49.3589C-87.3736 49.172 -86.7276 48.988 -86.0811 48.8052L-83.3604 58.4272ZM87.0801 48.8052C87.7267 48.988 88.3727 49.172 89.0176 49.3589L86.2354 58.9644C85.6111 58.7835 84.9862 58.6042 84.3604 58.4272L87.0801 48.8052ZM-72.9814 55.688C-73.6118 55.8425 -74.2413 55.9993 -74.8701 56.1577L-77.3135 46.4614C-76.6639 46.2978 -76.0135 46.1357 -75.3623 45.9761L-72.9814 55.688ZM76.3613 45.9761C77.0125 46.1357 77.6629 46.2978 78.3125 46.4614L75.8701 56.1577C75.2413 55.9993 74.6118 55.8425 73.9814 55.688L76.3613 45.9761ZM-62.5078 53.3149C-63.1466 53.4479 -63.7855 53.5833 -64.4229 53.7202L-66.5234 43.9438C-65.8653 43.8024 -65.2065 43.6632 -64.5469 43.5259L-62.5078 53.3149ZM65.5459 43.5259C66.2055 43.6632 66.8644 43.8024 67.5225 43.9438L65.4229 53.7202C64.7855 53.5833 64.1466 53.4479 63.5078 53.3149L65.5459 43.5259ZM-52.8213 46.3862L-51.9746 51.314C-52.6163 51.4243 -53.2572 51.5366 -53.8975 51.6509L-54.7764 46.728L-55.6543 41.8062C-54.9932 41.6882 -54.3314 41.5724 -53.6689 41.4585L-52.8213 46.3862ZM54.667 41.4585C55.3298 41.5724 55.9919 41.6881 56.6533 41.8062L55.7764 46.729L55.7754 46.728L54.8975 51.6509C54.2572 51.5366 53.6163 51.4243 52.9746 51.314L54.667 41.4585ZM-41.3662 49.6812C-42.0098 49.7687 -42.6527 49.8582 -43.2949 49.9497L-44.001 44.9985L-44.7061 40.0503C-44.043 39.9558 -43.3792 39.8634 -42.7148 39.7729L-41.3662 49.6812ZM43.7139 39.7729C44.3783 39.8634 45.042 39.9558 45.7051 40.0503L45.001 44.9995L45 44.9985L44.2949 49.9497C43.6527 49.8582 43.0098 49.7687 42.3662 49.6812L43.7139 39.7729ZM-30.6914 48.4175C-31.341 48.4829 -31.9903 48.5502 -32.6387 48.6196L-33.7031 38.6772C-33.0338 38.6056 -32.3639 38.5358 -31.6934 38.4683L-30.6914 48.4175ZM32.6924 38.4683C33.3629 38.5358 34.0328 38.6056 34.7021 38.6772L33.6387 48.6196C32.9903 48.5502 32.341 48.4829 31.6914 48.4175L32.6924 38.4683ZM-20.0068 47.5288C-20.6574 47.5716 -21.3076 47.6157 -21.957 47.6626L-22.6768 37.6899C-22.0061 37.6416 -21.3349 37.5955 -20.6631 37.5513L-20.0068 47.5288ZM21.6621 37.5513C22.3339 37.5955 23.0051 37.6416 23.6758 37.6899L22.957 47.6626C22.3076 47.6157 21.6574 47.5716 21.0068 47.5288L21.6621 37.5513ZM-9.28418 47.0083C-9.93392 47.0286 -10.5837 47.0514 -11.2324 47.0757L-11.6064 37.0825C-10.937 37.0574 -10.2671 37.0341 -9.59668 37.0132L-9.28418 47.0083ZM10.5957 37.0132C11.2662 37.0341 11.9361 37.0574 12.6055 37.0825L12.2324 47.0757C11.5837 47.0514 10.9339 47.0286 10.2842 47.0083L10.5957 37.0132ZM1.51172 36.8589L1.48145 46.8579C1.15442 46.8569 0.827272 46.856 0.5 46.856C0.172728 46.856 -0.15442 46.8569 -0.481445 46.8579L-0.512695 36.8589C-0.17525 36.8578 0.162308 36.856 0.5 36.856C0.837364 36.856 1.1746 36.8578 1.51172 36.8589Z" fill="#599D92"/>
<path d="M317 354.356C317 179.558 175.298 37.856 0.5 37.856C-174.298 37.856 -316 179.558 -316 354.356C-316 529.154 -174.298 670.856 0.5 670.856C175.298 670.856 317 529.154 317 354.356ZM319 354.356C319 530.259 176.403 672.856 0.5 672.856C-175.403 672.856 -318 530.259 -318 354.356C-318 178.453 -175.403 35.856 0.5 35.856C176.403 35.856 319 178.453 319 354.356Z" fill="#599D92"/>
<path d="M319.414 296.632C319.302 295.958 319.377 295.339 319.639 294.777C319.901 294.215 320.328 293.74 320.919 293.353C321.52 292.973 322.254 292.709 323.122 292.562C323.99 292.415 324.77 292.423 325.46 292.585C326.152 292.755 326.713 293.063 327.142 293.508C327.579 293.952 327.854 294.511 327.966 295.186C328.081 295.876 328.007 296.502 327.745 297.064C327.483 297.627 327.052 298.098 326.451 298.479C325.851 298.859 325.113 299.123 324.237 299.272C323.369 299.418 322.589 299.411 321.899 299.249C321.216 299.085 320.66 298.781 320.231 298.335C319.801 297.89 319.529 297.322 319.414 296.632ZM320.555 296.439C320.629 296.881 320.81 297.233 321.098 297.495C321.388 297.765 321.78 297.938 322.274 298.014C322.77 298.097 323.352 298.082 324.021 297.969C324.697 297.855 325.256 297.677 325.697 297.435C326.14 297.2 326.455 296.908 326.642 296.558C326.837 296.214 326.898 295.821 326.825 295.379C326.753 294.945 326.569 294.597 326.273 294.337C325.984 294.074 325.592 293.902 325.096 293.818C324.601 293.735 324.015 293.75 323.339 293.864C322.67 293.977 322.115 294.155 321.674 294.397C321.232 294.639 320.917 294.932 320.729 295.274C320.541 295.617 320.483 296.005 320.555 296.439Z" fill="#599D92"/>
<path d="M324.408 289.727L324.078 287.99L325.076 287.797L325.21 288.503C325.271 288.82 325.356 289.063 325.468 289.234C325.589 289.41 325.753 289.523 325.96 289.571C326.176 289.617 326.455 289.607 326.8 289.54L326.986 290.525L318.838 292.1L318.6 290.849L324.408 289.727Z" fill="#599D92"/>
<path d="M305.997 243.874C305.771 243.229 305.74 242.607 305.902 242.008C306.065 241.408 306.404 240.867 306.921 240.383C307.448 239.904 308.126 239.517 308.957 239.222C309.787 238.927 310.556 238.8 311.264 238.84C311.974 238.887 312.579 239.093 313.078 239.458C313.584 239.819 313.95 240.323 314.175 240.968C314.405 241.628 314.439 242.257 314.277 242.857C314.114 243.456 313.77 243.995 313.243 244.474C312.717 244.953 312.034 245.341 311.197 245.639C310.366 245.934 309.597 246.062 308.889 246.021C308.189 245.979 307.589 245.775 307.09 245.411C306.592 245.046 306.227 244.534 305.997 243.874ZM307.088 243.486C307.235 243.909 307.473 244.224 307.802 244.433C308.133 244.648 308.549 244.751 309.049 244.74C309.552 244.736 310.123 244.621 310.762 244.393C311.409 244.164 311.929 243.891 312.323 243.576C312.719 243.269 312.979 242.926 313.104 242.549C313.238 242.176 313.231 241.778 313.084 241.356C312.939 240.941 312.698 240.63 312.362 240.425C312.034 240.216 311.618 240.114 311.115 240.118C310.613 240.121 310.038 240.238 309.391 240.468C308.752 240.695 308.236 240.966 307.842 241.281C307.448 241.596 307.187 241.938 307.061 242.309C306.934 242.679 306.943 243.071 307.088 243.486Z" fill="#599D92"/>
<path d="M302.787 234.514C303.392 234.284 303.953 234.171 304.471 234.175C304.992 234.186 305.525 234.332 306.071 234.611C306.625 234.887 307.237 235.322 307.909 235.915C308.249 236.222 308.534 236.449 308.764 236.597C308.994 236.745 309.207 236.836 309.403 236.87C309.606 236.902 309.828 236.872 310.069 236.78C310.441 236.638 310.69 236.405 310.818 236.079C310.953 235.75 310.935 235.357 310.765 234.902C310.58 234.409 310.302 234.066 309.929 233.871C309.557 233.677 309.105 233.639 308.575 233.757L308.189 232.493C309.016 232.278 309.752 232.342 310.397 232.685C311.041 233.027 311.525 233.629 311.847 234.489C312.053 235.04 312.133 235.552 312.085 236.024C312.044 236.494 311.891 236.896 311.625 237.233C311.363 237.577 311.005 237.835 310.553 238.007C310.153 238.16 309.789 238.223 309.462 238.196C309.136 238.169 308.792 238.052 308.432 237.845C308.081 237.643 307.66 237.32 307.17 236.877C306.582 236.353 306.046 235.978 305.561 235.751C305.079 235.531 304.696 235.463 304.41 235.547L305.984 239.749L304.902 240.161L302.787 234.514Z" fill="#599D92"/>
<path d="M282.641 191.985C282.307 191.39 282.167 190.784 282.222 190.165C282.278 189.546 282.517 188.952 282.941 188.384C283.376 187.819 283.976 187.318 284.742 186.88C285.508 186.442 286.243 186.179 286.947 186.093C287.654 186.013 288.285 186.109 288.84 186.379C289.402 186.645 289.849 187.075 290.184 187.67C290.526 188.279 290.669 188.892 290.614 189.511C290.559 190.13 290.314 190.722 289.879 191.287C289.444 191.852 288.841 192.356 288.068 192.798C287.302 193.236 286.567 193.498 285.864 193.584C285.167 193.667 284.541 193.573 283.986 193.303C283.431 193.033 282.983 192.594 282.641 191.985ZM283.647 191.41C283.866 191.799 284.156 192.067 284.516 192.214C284.88 192.367 285.307 192.394 285.797 192.294C286.291 192.201 286.833 191.986 287.422 191.649C288.019 191.308 288.483 190.947 288.816 190.567C289.153 190.194 289.349 189.81 289.405 189.417C289.472 189.026 289.396 188.636 289.177 188.246C288.962 187.863 288.671 187.6 288.305 187.458C287.945 187.311 287.518 187.284 287.023 187.377C286.529 187.47 285.984 187.687 285.388 188.028C284.798 188.366 284.337 188.724 284.004 189.104C283.672 189.485 283.475 189.868 283.415 190.255C283.355 190.642 283.432 191.027 283.647 191.41Z" fill="#599D92"/>
<path d="M279.154 185.908C278.672 185.09 278.485 184.343 278.593 183.665C278.701 182.987 279.064 182.441 279.68 182.025L280.403 183.114C280.035 183.381 279.834 183.702 279.802 184.078C279.77 184.454 279.885 184.865 280.148 185.311C280.427 185.784 280.749 186.107 281.115 186.281C281.484 186.462 281.873 186.43 282.281 186.185C282.563 186.016 282.757 185.808 282.865 185.56C282.977 185.319 283.004 185.051 282.948 184.756C282.902 184.463 282.784 184.154 282.593 183.83L282.246 183.242L283.19 182.676L283.537 183.264C283.78 183.676 284.053 183.955 284.357 184.102C284.668 184.245 285.004 184.207 285.366 183.99C285.701 183.79 285.889 183.525 285.932 183.198C285.985 182.873 285.885 182.495 285.63 182.062C285.379 181.637 285.105 181.357 284.809 181.224C284.517 181.098 284.206 181.101 283.877 181.235L283.274 180.074C283.89 179.796 284.495 179.776 285.088 180.014C285.682 180.252 286.194 180.736 286.624 181.466C287.078 182.236 287.256 182.938 287.159 183.573C287.066 184.214 286.718 184.716 286.115 185.077C285.68 185.338 285.242 185.409 284.8 185.29C284.362 185.178 283.934 184.882 283.515 184.402L283.695 184.293C283.966 184.936 284.033 185.527 283.897 186.066C283.761 186.604 283.432 187.03 282.91 187.344C282.462 187.613 282.009 187.729 281.552 187.692C281.099 187.662 280.664 187.493 280.247 187.186C279.837 186.874 279.473 186.448 279.154 185.908Z" fill="#599D92"/>
<path d="M251.888 146.686C251.459 146.157 251.219 145.582 251.169 144.963C251.119 144.344 251.255 143.718 251.578 143.085C251.911 142.454 252.418 141.857 253.099 141.294C253.78 140.731 254.46 140.346 255.139 140.141C255.823 139.941 256.461 139.927 257.053 140.097C257.651 140.263 258.165 140.611 258.594 141.14C259.034 141.681 259.279 142.261 259.328 142.88C259.378 143.5 259.237 144.125 258.903 144.756C258.57 145.388 258.06 145.987 257.373 146.555C256.692 147.119 256.012 147.503 255.333 147.709C254.66 147.91 254.028 147.924 253.436 147.754C252.844 147.583 252.328 147.227 251.888 146.686ZM252.783 145.946C253.064 146.292 253.395 146.507 253.774 146.589C254.159 146.678 254.584 146.631 255.05 146.449C255.521 146.273 256.019 145.968 256.543 145.534C257.074 145.096 257.471 144.661 257.735 144.229C258.003 143.803 258.132 143.392 258.122 142.994C258.122 142.598 257.981 142.226 257.7 141.88C257.423 141.539 257.092 141.33 256.707 141.253C256.327 141.17 255.902 141.217 255.431 141.393C254.959 141.569 254.459 141.877 253.929 142.315C253.404 142.749 253.01 143.181 252.746 143.613C252.483 144.044 252.354 144.456 252.359 144.848C252.365 145.239 252.506 145.605 252.783 145.946Z" fill="#599D92"/>
<path d="M249.441 140.698L246.72 137.492L247.536 136.786L254.323 136.262L255.25 137.354L251.132 140.913L251.786 141.683L250.916 142.435L250.262 141.665L248.949 142.8L248.128 141.833L249.441 140.698ZM250.311 139.946L253.098 137.537L248.524 137.842L250.311 139.946Z" fill="#599D92"/>
<path d="M213.76 107.106C213.248 106.659 212.915 106.134 212.761 105.532C212.607 104.93 212.636 104.29 212.847 103.612C213.069 102.932 213.468 102.257 214.044 101.585C214.62 100.913 215.225 100.418 215.859 100.098C216.499 99.784 217.126 99.6603 217.738 99.727C218.355 99.7878 218.92 100.042 219.433 100.489C219.957 100.947 220.296 101.477 220.45 102.078C220.604 102.68 220.57 103.321 220.348 104C220.126 104.679 219.724 105.358 219.143 106.036C218.567 106.707 217.962 107.203 217.328 107.522C216.699 107.836 216.078 107.959 215.466 107.893C214.853 107.826 214.285 107.564 213.76 107.106ZM214.517 106.223C214.853 106.516 215.215 106.671 215.603 106.687C215.996 106.709 216.408 106.589 216.836 106.33C217.271 106.075 217.71 105.689 218.153 105.172C218.602 104.649 218.92 104.152 219.107 103.681C219.3 103.216 219.358 102.788 219.28 102.398C219.213 102.007 219.012 101.665 218.676 101.372C218.346 101.084 217.985 100.935 217.592 100.925C217.204 100.908 216.793 101.028 216.358 101.282C215.924 101.537 215.482 101.926 215.034 102.449C214.59 102.966 214.275 103.46 214.088 103.931C213.901 104.401 213.843 104.829 213.915 105.214C213.986 105.599 214.187 105.935 214.517 106.223Z" fill="#599D92"/>
<path d="M208.412 102.527C207.716 101.945 207.301 101.318 207.166 100.644C207.031 99.9699 207.171 99.3313 207.585 98.7281L208.636 99.4991C208.405 99.8672 208.337 100.234 208.432 100.599C208.533 100.969 208.772 101.312 209.15 101.628C209.57 101.978 209.997 102.136 210.431 102.1C210.871 102.07 211.265 101.842 211.612 101.419C211.955 101.001 212.103 100.568 212.055 100.12C212.019 99.6716 211.788 99.2693 211.362 98.9134C211.074 98.6729 210.767 98.5234 210.44 98.4651C210.125 98.4058 209.835 98.4389 209.57 98.5646L208.562 97.7225L212.004 94.4141L215.749 97.5418L215.011 98.441L212.13 96.0351L210.05 98.0165L210.008 97.7525C210.366 97.6124 210.74 97.588 211.13 97.6793C211.532 97.7696 211.912 97.9651 212.272 98.2658C212.693 98.6167 212.988 99.0213 213.158 99.4797C213.334 99.9431 213.373 100.419 213.274 100.909C213.181 101.392 212.963 101.843 212.62 102.261C212.258 102.703 211.838 103.011 211.362 103.184C210.886 103.358 210.391 103.388 209.877 103.275C209.369 103.167 208.881 102.918 208.412 102.527Z" fill="#599D92"/>
<path d="M169.614 74.7063C169.033 74.3536 168.616 73.8939 168.363 73.3274C168.11 72.7608 168.03 72.1251 168.123 71.4202C168.227 70.7126 168.506 69.9784 168.96 69.2174C169.415 68.4565 169.927 67.8641 170.498 67.4404C171.076 67.0207 171.672 66.7911 172.287 66.7516C172.906 66.7054 173.505 66.8586 174.086 67.2114C174.68 67.5722 175.104 68.0359 175.357 68.6025C175.61 69.169 175.684 69.8061 175.58 70.5137C175.476 71.2212 175.195 71.9589 174.737 72.7265C174.283 73.4875 173.77 74.0798 173.199 74.5036C172.632 74.9206 172.041 75.1489 171.427 75.1884C170.812 75.2278 170.208 75.0672 169.614 74.7063ZM170.21 73.7063C170.591 73.9374 170.973 74.0277 171.358 73.977C171.75 73.9305 172.135 73.7423 172.513 73.4126C172.899 73.087 173.266 72.6313 173.616 72.0454C173.969 71.4528 174.199 70.9085 174.304 70.4126C174.415 69.9208 174.4 69.4894 174.257 69.1184C174.126 68.7448 173.87 68.4425 173.489 68.2114C173.116 67.9843 172.734 67.8995 172.345 67.9568C171.96 68.0075 171.575 68.1956 171.19 68.5212C170.805 68.8469 170.435 69.306 170.082 69.8986C169.732 70.4844 169.505 71.0253 169.4 71.5212C169.295 72.0172 169.31 72.4486 169.446 72.8154C169.582 73.1823 169.836 73.4793 170.21 73.7063Z" fill="#599D92"/>
<path d="M163.62 71.1429C162.775 70.6547 162.283 69.9947 162.145 69.1629C162.013 68.3351 162.245 67.3959 162.842 66.3454C163.322 65.4996 163.842 64.8127 164.402 64.2848C164.962 63.7569 165.564 63.4303 166.21 63.3051C166.856 63.1799 167.516 63.3126 168.192 63.7032C168.828 64.0704 169.246 64.5202 169.446 65.0527C169.654 65.5892 169.673 66.18 169.504 66.8253L168.367 66.2904C168.442 65.9532 168.422 65.6563 168.307 65.3998C168.203 65.1403 167.975 64.9091 167.623 64.706C167.055 64.3779 166.479 64.3661 165.893 64.6708C165.307 64.9754 164.729 65.6062 164.159 66.5631L163.99 66.4108C164.313 66.1089 164.721 65.9367 165.212 65.8942C165.703 65.8518 166.192 65.9711 166.678 66.2524C167.152 66.5258 167.513 66.8703 167.762 67.2858C168.014 67.6946 168.132 68.1431 168.116 68.6316C168.109 69.1171 167.969 69.602 167.694 70.0863C167.396 70.6116 167.025 71.0041 166.581 71.2641C166.137 71.524 165.658 71.641 165.143 71.6152C164.635 71.5933 164.127 71.4359 163.62 71.1429ZM164.188 70.1665C164.627 70.4204 165.061 70.4856 165.491 70.3622C165.93 70.2359 166.29 69.9271 166.568 69.436C166.828 68.979 166.903 68.5379 166.794 68.1127C166.696 67.6846 166.437 67.3495 166.018 67.1073C165.714 66.9315 165.409 66.8367 165.102 66.8228C164.796 66.8088 164.509 66.8788 164.243 67.0326C163.976 67.1864 163.757 67.4133 163.587 67.7135C163.413 68.0204 163.319 68.3284 163.305 68.6375C163.291 68.9465 163.36 69.2357 163.513 69.5049C163.665 69.7741 163.89 69.9947 164.188 70.1665Z" fill="#599D92"/>
<path d="M118.696 49.6169C118.063 49.3738 117.572 48.9962 117.223 48.4841C116.874 47.9719 116.684 47.3606 116.651 46.6502C116.629 45.9352 116.774 45.1627 117.087 44.3324C117.4 43.5022 117.8 42.8273 118.287 42.3079C118.782 41.7913 119.328 41.4585 119.926 41.3094C120.527 41.153 121.144 41.1963 121.778 41.4393C122.426 41.6879 122.924 42.0683 123.273 42.5805C123.622 43.0927 123.807 43.7062 123.83 44.4212C123.852 45.1361 123.705 45.9124 123.39 46.75C123.077 47.5802 122.677 48.255 122.189 48.7745C121.705 49.2865 121.163 49.6171 120.565 49.7662C119.968 49.9152 119.345 49.8655 118.696 49.6169ZM119.108 48.5258C119.523 48.685 119.915 48.7052 120.285 48.5864C120.662 48.4703 121.008 48.2161 121.322 47.8238C121.644 47.4343 121.925 46.9199 122.166 46.2807C122.41 45.6341 122.54 45.0574 122.556 44.5506C122.579 44.0465 122.488 43.6248 122.282 43.2853C122.087 42.9412 121.782 42.6896 121.367 42.5304C120.959 42.3739 120.569 42.3588 120.196 42.485C119.826 42.6038 119.48 42.858 119.159 43.2475C118.837 43.6371 118.554 44.1551 118.31 44.8017C118.07 45.4409 117.941 46.0139 117.925 46.5208C117.909 47.0276 118 47.4494 118.199 47.7861C118.397 48.1228 118.7 48.3694 119.108 48.5258Z" fill="#599D92"/>
<path d="M111.359 46.6998C111.78 45.4993 112.431 44.3975 113.311 43.3943C114.192 42.3912 115.227 41.5475 116.417 40.8633L112.054 39.3065L112.44 38.2061L118.059 40.211L117.7 41.2336C116.381 41.9801 115.311 42.8157 114.491 43.7404C113.679 44.6677 113.039 45.7983 112.571 47.1322L111.359 46.6998Z" fill="#599D92"/>
<path d="M62.5996 33.8322C61.9327 33.7102 61.3814 33.4296 60.9457 32.9904C60.51 32.5512 60.2119 31.9854 60.0513 31.2929C59.8997 30.5942 59.9025 29.8078 60.0596 28.9338C60.2166 28.0599 60.4877 27.3226 60.8727 26.722C61.2654 26.1228 61.7422 25.6948 62.303 25.4379C62.8652 25.1733 63.4798 25.102 64.1467 25.224C64.8289 25.3488 65.3879 25.6308 65.8236 26.07C66.2593 26.5092 66.5529 27.0782 66.7044 27.7769C66.856 28.4757 66.8525 29.2659 66.6941 30.1476C66.537 31.0216 66.2659 31.7589 65.8809 32.3595C65.4972 32.9523 65.025 33.3772 64.4642 33.6341C63.9034 33.891 63.2819 33.957 62.5996 33.8322ZM62.806 32.6837C63.243 32.7636 63.6325 32.711 63.9745 32.526C64.3242 32.3423 64.6181 32.0286 64.8562 31.5849C65.102 31.1425 65.2853 30.5849 65.4063 29.912C65.5286 29.2314 65.5517 28.6405 65.4755 28.1393C65.4069 27.6394 65.2409 27.2416 64.9774 26.9457C64.7229 26.6435 64.3772 26.4525 63.9403 26.3725C63.511 26.294 63.1246 26.3511 62.7812 26.5439C62.4391 26.729 62.1453 27.0427 61.8995 27.485C61.6537 27.9274 61.4697 28.4888 61.3473 29.1694C61.2264 29.8423 61.2041 30.4294 61.2802 30.9306C61.3564 31.4319 61.5225 31.8297 61.7783 32.1242C62.0342 32.4186 62.3767 32.6051 62.806 32.6837Z" fill="#599D92"/>
<path d="M55.7981 32.6506C55.1673 32.5488 54.6282 32.3663 54.1807 32.103C53.7345 31.832 53.4096 31.493 53.2058 31.086C53.0021 30.679 52.9415 30.2155 53.0239 29.6954C53.1186 29.0978 53.3743 28.6296 53.7909 28.2908C54.2088 27.9443 54.7397 27.7554 55.3837 27.724L55.3699 27.9605C54.8806 27.7622 54.5145 27.4842 54.2713 27.1266C54.0371 26.7624 53.9594 26.3319 54.0381 25.8352C54.1083 25.3928 54.2819 25.0188 54.5592 24.7133C54.8364 24.4078 55.1981 24.1915 55.6443 24.0645C56.0981 23.9387 56.6058 23.9211 57.1674 24.0118C57.729 24.1024 58.2021 24.2782 58.5867 24.5393C58.9714 24.8004 59.2482 25.1197 59.4172 25.4972C59.5861 25.8747 59.6355 26.2847 59.5654 26.7271C59.4867 27.2238 59.2804 27.6045 58.9466 27.869C58.6127 28.1336 58.1782 28.2863 57.6431 28.3274L57.7031 28.0982C58.3053 28.3307 58.7514 28.6773 59.0413 29.138C59.3401 29.5922 59.4421 30.1182 59.3474 30.7158C59.2649 31.2358 59.0602 31.6565 58.7331 31.9779C58.4137 32.3005 58.0002 32.5203 57.4925 32.6374C56.986 32.7467 56.4212 32.7511 55.7981 32.6506ZM55.9808 31.4979C56.5577 31.591 57.0307 31.544 57.3996 31.3567C57.7686 31.1695 57.9899 30.843 58.0638 30.3773C58.1376 29.9116 58.0377 29.5214 57.7641 29.2066C57.4905 28.8918 57.0499 28.6854 56.4422 28.5873C55.8267 28.488 55.3404 28.5448 54.9832 28.7578C54.6259 28.9708 54.4104 29.3102 54.3366 29.7759C54.2628 30.2416 54.3722 30.6215 54.6648 30.9155C54.9575 31.2094 55.3961 31.4036 55.9808 31.4979ZM56.6064 27.5511C57.0833 27.6281 57.4648 27.5861 57.7506 27.4253C58.0365 27.2644 58.2114 26.9822 58.2754 26.5786C58.3332 26.2138 58.2517 25.9061 58.0311 25.6556C57.8117 25.3973 57.4635 25.2297 56.9866 25.1527C56.5019 25.0745 56.1154 25.1236 55.8271 25.3C55.5401 25.4686 55.3676 25.7353 55.3098 26.1001C55.2458 26.5037 55.3248 26.8269 55.5466 27.0696C55.7762 27.3137 56.1294 27.4741 56.6064 27.5511Z" fill="#599D92"/>
<path d="M159.485 -247.661L161.417 -247.144L-2.6226e-06 355.273L-1.93185 354.756L159.485 -247.661Z" fill="#599D92"/>
<path d="M439.586 -87.5579L441 -86.1437L-1.54972e-06 354.856L-1.41422 353.442L439.586 -87.5579Z" fill="#599D92"/>
<path d="M601.899 191.924L602.417 193.856L-1.07288e-06 355.273L-0.517639 353.341L601.899 191.924Z" fill="#599D92"/>
<path d="M601.899 517.705L602.417 515.773L5.99623e-05 354.356L-0.517578 356.288L601.899 517.705Z" fill="#599D92"/>
<path d="M488.767 846.368L490.181 844.954L3.08191e-05 354.773L-1.41418 356.187L488.767 846.368Z" fill="#599D92"/>
</g>
<defs>
<clipPath id="clip0_21_92">
<rect width="448" height="831" fill="white"/>
</clipPath>
</defs>
</svg>
