<svg width="451" height="1310" viewBox="0 0 451 1310" fill="none" xmlns="http://www.w3.org/2000/svg">
<rect x="38.4169" y="636.5" width="37.33" height="37.33" transform="rotate(-180 38.4169 636.5)" stroke="#599D92" stroke-width="2"/>
<rect x="75.7468" y="636.5" width="37.33" height="37.33" transform="rotate(-180 75.7468 636.5)" stroke="#599D92" stroke-width="2"/>
<rect x="113.077" y="636.5" width="37.33" height="37.33" transform="rotate(-180 113.077 636.5)" stroke="#599D92" stroke-width="2"/>
<rect x="150.407" y="636.5" width="37.33" height="37.33" transform="rotate(-180 150.407 636.5)" stroke="#599D92" stroke-width="2"/>
<rect x="187.737" y="636.5" width="37.33" height="37.33" transform="rotate(-180 187.737 636.5)" stroke="#599D92" stroke-width="2"/>
<rect x="225.067" y="636.5" width="37.33" height="37.33" transform="rotate(-180 225.067 636.5)" stroke="#599D92" stroke-width="2"/>
<rect x="262.397" y="636.5" width="37.33" height="37.33" transform="rotate(-180 262.397 636.5)" stroke="#599D92" stroke-width="2"/>
<rect x="299.727" y="636.5" width="37.33" height="37.33" transform="rotate(-180 299.727 636.5)" stroke="#599D92" stroke-width="2"/>
<rect x="337.057" y="636.5" width="37.33" height="37.33" transform="rotate(-180 337.057 636.5)" stroke="#599D92" stroke-width="2"/>
<rect x="374.386" y="636.5" width="37.33" height="37.33" transform="rotate(-180 374.386 636.5)" stroke="#599D92" stroke-width="2"/>
<rect x="411.717" y="636.5" width="37.33" height="37.33" transform="rotate(-180 411.717 636.5)" stroke="#599D92" stroke-width="2"/>
<rect x="449.046" y="636.5" width="37.33" height="37.33" transform="rotate(-180 449.046 636.5)" stroke="#599D92" stroke-width="2"/>
<rect x="38.4169" y="673.83" width="37.33" height="37.33" transform="rotate(-180 38.4169 673.83)" stroke="#599D92" stroke-width="2"/>
<rect x="75.7468" y="673.83" width="37.33" height="37.33" transform="rotate(-180 75.7468 673.83)" stroke="#599D92" stroke-width="2"/>
<rect x="113.077" y="673.83" width="37.33" height="37.33" transform="rotate(-180 113.077 673.83)" stroke="#599D92" stroke-width="2"/>
<rect x="150.407" y="673.83" width="37.33" height="37.33" transform="rotate(-180 150.407 673.83)" stroke="#599D92" stroke-width="2"/>
<rect x="187.737" y="673.83" width="37.33" height="37.33" transform="rotate(-180 187.737 673.83)" stroke="#599D92" stroke-width="2"/>
<rect x="225.067" y="673.83" width="37.33" height="37.33" transform="rotate(-180 225.067 673.83)" stroke="#599D92" stroke-width="2"/>
<rect x="262.397" y="673.83" width="37.33" height="37.33" transform="rotate(-180 262.397 673.83)" stroke="#599D92" stroke-width="2"/>
<rect x="299.727" y="673.83" width="37.33" height="37.33" transform="rotate(-180 299.727 673.83)" stroke="#599D92" stroke-width="2"/>
<rect x="337.057" y="673.83" width="37.33" height="37.33" transform="rotate(-180 337.057 673.83)" stroke="#599D92" stroke-width="2"/>
<rect x="374.386" y="673.83" width="37.33" height="37.33" transform="rotate(-180 374.386 673.83)" stroke="#599D92" stroke-width="2"/>
<rect x="411.717" y="673.83" width="37.33" height="37.33" transform="rotate(-180 411.717 673.83)" stroke="#599D92" stroke-width="2"/>
<rect x="449.046" y="673.83" width="37.33" height="37.33" transform="rotate(-180 449.046 673.83)" stroke="#599D92" stroke-width="2"/>
<rect x="38.4169" y="711.16" width="37.33" height="37.33" transform="rotate(-180 38.4169 711.16)" stroke="#599D92" stroke-width="2"/>
<rect x="75.7468" y="711.16" width="37.33" height="37.33" transform="rotate(-180 75.7468 711.16)" stroke="#599D92" stroke-width="2"/>
<rect x="113.077" y="711.16" width="37.33" height="37.33" transform="rotate(-180 113.077 711.16)" stroke="#599D92" stroke-width="2"/>
<rect x="150.407" y="711.16" width="37.33" height="37.33" transform="rotate(-180 150.407 711.16)" stroke="#599D92" stroke-width="2"/>
<rect x="187.737" y="711.16" width="37.33" height="37.33" transform="rotate(-180 187.737 711.16)" stroke="#599D92" stroke-width="2"/>
<rect x="225.067" y="711.16" width="37.33" height="37.33" transform="rotate(-180 225.067 711.16)" stroke="#599D92" stroke-width="2"/>
<rect x="262.397" y="711.16" width="37.33" height="37.33" transform="rotate(-180 262.397 711.16)" stroke="#599D92" stroke-width="2"/>
<rect x="299.727" y="711.16" width="37.33" height="37.33" transform="rotate(-180 299.727 711.16)" stroke="#599D92" stroke-width="2"/>
<rect x="337.057" y="711.16" width="37.33" height="37.33" transform="rotate(-180 337.057 711.16)" stroke="#599D92" stroke-width="2"/>
<rect x="374.386" y="711.16" width="37.33" height="37.33" transform="rotate(-180 374.386 711.16)" stroke="#599D92" stroke-width="2"/>
<rect x="411.717" y="711.16" width="37.33" height="37.33" transform="rotate(-180 411.717 711.16)" stroke="#599D92" stroke-width="2"/>
<rect x="449.046" y="711.16" width="37.33" height="37.33" transform="rotate(-180 449.046 711.16)" stroke="#599D92" stroke-width="2"/>
<rect x="38.4169" y="748.49" width="37.33" height="37.33" transform="rotate(-180 38.4169 748.49)" stroke="#599D92" stroke-width="2"/>
<rect x="75.7468" y="748.49" width="37.33" height="37.33" transform="rotate(-180 75.7468 748.49)" stroke="#599D92" stroke-width="2"/>
<rect x="113.077" y="748.49" width="37.33" height="37.33" transform="rotate(-180 113.077 748.49)" stroke="#599D92" stroke-width="2"/>
<rect x="150.407" y="748.49" width="37.33" height="37.33" transform="rotate(-180 150.407 748.49)" stroke="#599D92" stroke-width="2"/>
<rect x="187.737" y="748.49" width="37.33" height="37.33" transform="rotate(-180 187.737 748.49)" stroke="#599D92" stroke-width="2"/>
<rect x="225.067" y="748.49" width="37.33" height="37.33" transform="rotate(-180 225.067 748.49)" stroke="#599D92" stroke-width="2"/>
<rect x="262.397" y="748.49" width="37.33" height="37.33" transform="rotate(-180 262.397 748.49)" stroke="#599D92" stroke-width="2"/>
<rect x="299.727" y="748.49" width="37.33" height="37.33" transform="rotate(-180 299.727 748.49)" stroke="#599D92" stroke-width="2"/>
<rect x="337.057" y="748.49" width="37.33" height="37.33" transform="rotate(-180 337.057 748.49)" stroke="#599D92" stroke-width="2"/>
<rect x="374.386" y="748.49" width="37.33" height="37.33" transform="rotate(-180 374.386 748.49)" stroke="#599D92" stroke-width="2"/>
<rect x="411.717" y="748.49" width="37.33" height="37.33" transform="rotate(-180 411.717 748.49)" stroke="#599D92" stroke-width="2"/>
<rect x="449.046" y="748.49" width="37.33" height="37.33" transform="rotate(-180 449.046 748.49)" stroke="#599D92" stroke-width="2"/>
<rect x="38.4169" y="785.82" width="37.33" height="37.33" transform="rotate(-180 38.4169 785.82)" stroke="#599D92" stroke-width="2"/>
<rect x="75.7468" y="785.82" width="37.33" height="37.33" transform="rotate(-180 75.7468 785.82)" stroke="#599D92" stroke-width="2"/>
<rect x="113.077" y="785.82" width="37.33" height="37.33" transform="rotate(-180 113.077 785.82)" stroke="#599D92" stroke-width="2"/>
<rect x="150.407" y="785.82" width="37.33" height="37.33" transform="rotate(-180 150.407 785.82)" stroke="#599D92" stroke-width="2"/>
<rect x="187.737" y="785.82" width="37.33" height="37.33" transform="rotate(-180 187.737 785.82)" stroke="#599D92" stroke-width="2"/>
<rect x="225.067" y="785.82" width="37.33" height="37.33" transform="rotate(-180 225.067 785.82)" stroke="#599D92" stroke-width="2"/>
<rect x="262.397" y="785.82" width="37.33" height="37.33" transform="rotate(-180 262.397 785.82)" stroke="#599D92" stroke-width="2"/>
<rect x="299.727" y="785.82" width="37.33" height="37.33" transform="rotate(-180 299.727 785.82)" stroke="#599D92" stroke-width="2"/>
<rect x="337.057" y="785.82" width="37.33" height="37.33" transform="rotate(-180 337.057 785.82)" stroke="#599D92" stroke-width="2"/>
<rect x="374.386" y="785.82" width="37.33" height="37.33" transform="rotate(-180 374.386 785.82)" stroke="#599D92" stroke-width="2"/>
<rect x="411.717" y="785.82" width="37.33" height="37.33" transform="rotate(-180 411.717 785.82)" stroke="#599D92" stroke-width="2"/>
<rect x="449.046" y="785.82" width="37.33" height="37.33" transform="rotate(-180 449.046 785.82)" stroke="#599D92" stroke-width="2"/>
<rect x="38.4169" y="823.15" width="37.33" height="37.33" transform="rotate(-180 38.4169 823.15)" stroke="#599D92" stroke-width="2"/>
<rect x="75.7468" y="823.15" width="37.33" height="37.33" transform="rotate(-180 75.7468 823.15)" stroke="#599D92" stroke-width="2"/>
<rect x="113.077" y="823.15" width="37.33" height="37.33" transform="rotate(-180 113.077 823.15)" stroke="#599D92" stroke-width="2"/>
<rect x="150.407" y="823.15" width="37.33" height="37.33" transform="rotate(-180 150.407 823.15)" stroke="#599D92" stroke-width="2"/>
<rect x="187.737" y="823.15" width="37.33" height="37.33" transform="rotate(-180 187.737 823.15)" stroke="#599D92" stroke-width="2"/>
<rect x="225.067" y="823.15" width="37.33" height="37.33" transform="rotate(-180 225.067 823.15)" stroke="#599D92" stroke-width="2"/>
<rect x="262.397" y="823.15" width="37.33" height="37.33" transform="rotate(-180 262.397 823.15)" stroke="#599D92" stroke-width="2"/>
<rect x="299.727" y="823.15" width="37.33" height="37.33" transform="rotate(-180 299.727 823.15)" stroke="#599D92" stroke-width="2"/>
<rect x="337.057" y="823.15" width="37.33" height="37.33" transform="rotate(-180 337.057 823.15)" stroke="#599D92" stroke-width="2"/>
<rect x="374.386" y="823.15" width="37.33" height="37.33" transform="rotate(-180 374.386 823.15)" stroke="#599D92" stroke-width="2"/>
<rect x="411.717" y="823.15" width="37.33" height="37.33" transform="rotate(-180 411.717 823.15)" stroke="#599D92" stroke-width="2"/>
<rect x="449.046" y="823.15" width="37.33" height="37.33" transform="rotate(-180 449.046 823.15)" stroke="#599D92" stroke-width="2"/>
<rect x="38.4169" y="860.48" width="37.33" height="37.33" transform="rotate(-180 38.4169 860.48)" stroke="#599D92" stroke-width="2"/>
<rect x="75.7468" y="860.48" width="37.33" height="37.33" transform="rotate(-180 75.7468 860.48)" stroke="#599D92" stroke-width="2"/>
<rect x="113.077" y="860.48" width="37.33" height="37.33" transform="rotate(-180 113.077 860.48)" stroke="#599D92" stroke-width="2"/>
<rect x="150.407" y="860.48" width="37.33" height="37.33" transform="rotate(-180 150.407 860.48)" stroke="#599D92" stroke-width="2"/>
<rect x="187.737" y="860.48" width="37.33" height="37.33" transform="rotate(-180 187.737 860.48)" stroke="#599D92" stroke-width="2"/>
<rect x="225.067" y="860.48" width="37.33" height="37.33" transform="rotate(-180 225.067 860.48)" stroke="#599D92" stroke-width="2"/>
<rect x="262.397" y="860.48" width="37.33" height="37.33" transform="rotate(-180 262.397 860.48)" stroke="#599D92" stroke-width="2"/>
<rect x="299.727" y="860.48" width="37.33" height="37.33" transform="rotate(-180 299.727 860.48)" stroke="#599D92" stroke-width="2"/>
<rect x="337.057" y="860.48" width="37.33" height="37.33" transform="rotate(-180 337.057 860.48)" stroke="#599D92" stroke-width="2"/>
<rect x="374.386" y="860.48" width="37.33" height="37.33" transform="rotate(-180 374.386 860.48)" stroke="#599D92" stroke-width="2"/>
<rect x="411.717" y="860.48" width="37.33" height="37.33" transform="rotate(-180 411.717 860.48)" stroke="#599D92" stroke-width="2"/>
<rect x="449.046" y="860.48" width="37.33" height="37.33" transform="rotate(-180 449.046 860.48)" stroke="#599D92" stroke-width="2"/>
<rect x="38.4169" y="897.81" width="37.33" height="37.33" transform="rotate(-180 38.4169 897.81)" stroke="#599D92" stroke-width="2"/>
<rect x="75.7468" y="897.81" width="37.33" height="37.33" transform="rotate(-180 75.7468 897.81)" stroke="#599D92" stroke-width="2"/>
<rect x="113.077" y="897.81" width="37.33" height="37.33" transform="rotate(-180 113.077 897.81)" stroke="#599D92" stroke-width="2"/>
<rect x="150.407" y="897.81" width="37.33" height="37.33" transform="rotate(-180 150.407 897.81)" stroke="#599D92" stroke-width="2"/>
<rect x="187.737" y="897.81" width="37.33" height="37.33" transform="rotate(-180 187.737 897.81)" stroke="#599D92" stroke-width="2"/>
<rect x="225.067" y="897.81" width="37.33" height="37.33" transform="rotate(-180 225.067 897.81)" stroke="#599D92" stroke-width="2"/>
<rect x="262.397" y="897.81" width="37.33" height="37.33" transform="rotate(-180 262.397 897.81)" stroke="#599D92" stroke-width="2"/>
<rect x="299.727" y="897.81" width="37.33" height="37.33" transform="rotate(-180 299.727 897.81)" stroke="#599D92" stroke-width="2"/>
<rect x="337.057" y="897.81" width="37.33" height="37.33" transform="rotate(-180 337.057 897.81)" stroke="#599D92" stroke-width="2"/>
<rect x="374.386" y="897.81" width="37.33" height="37.33" transform="rotate(-180 374.386 897.81)" stroke="#599D92" stroke-width="2"/>
<rect x="411.717" y="897.81" width="37.33" height="37.33" transform="rotate(-180 411.717 897.81)" stroke="#599D92" stroke-width="2"/>
<rect x="449.046" y="897.81" width="37.33" height="37.33" transform="rotate(-180 449.046 897.81)" stroke="#599D92" stroke-width="2"/>
<rect x="38.4169" y="935.14" width="37.33" height="37.33" transform="rotate(-180 38.4169 935.14)" stroke="#599D92" stroke-width="2"/>
<rect x="75.7468" y="935.14" width="37.33" height="37.33" transform="rotate(-180 75.7468 935.14)" stroke="#599D92" stroke-width="2"/>
<rect x="113.077" y="935.14" width="37.33" height="37.33" transform="rotate(-180 113.077 935.14)" stroke="#599D92" stroke-width="2"/>
<rect x="150.407" y="935.14" width="37.33" height="37.33" transform="rotate(-180 150.407 935.14)" stroke="#599D92" stroke-width="2"/>
<rect x="187.737" y="935.14" width="37.33" height="37.33" transform="rotate(-180 187.737 935.14)" stroke="#599D92" stroke-width="2"/>
<rect x="225.067" y="935.14" width="37.33" height="37.33" transform="rotate(-180 225.067 935.14)" stroke="#599D92" stroke-width="2"/>
<rect x="262.397" y="935.14" width="37.33" height="37.33" transform="rotate(-180 262.397 935.14)" stroke="#599D92" stroke-width="2"/>
<rect x="299.727" y="935.14" width="37.33" height="37.33" transform="rotate(-180 299.727 935.14)" stroke="#599D92" stroke-width="2"/>
<rect x="337.057" y="935.14" width="37.33" height="37.33" transform="rotate(-180 337.057 935.14)" stroke="#599D92" stroke-width="2"/>
<rect x="374.386" y="935.14" width="37.33" height="37.33" transform="rotate(-180 374.386 935.14)" stroke="#599D92" stroke-width="2"/>
<rect x="411.717" y="935.14" width="37.33" height="37.33" transform="rotate(-180 411.717 935.14)" stroke="#599D92" stroke-width="2"/>
<rect x="449.046" y="935.14" width="37.33" height="37.33" transform="rotate(-180 449.046 935.14)" stroke="#599D92" stroke-width="2"/>
<rect x="38.4169" y="972.47" width="37.33" height="37.33" transform="rotate(-180 38.4169 972.47)" stroke="#599D92" stroke-width="2"/>
<rect x="75.7468" y="972.47" width="37.33" height="37.33" transform="rotate(-180 75.7468 972.47)" stroke="#599D92" stroke-width="2"/>
<rect x="113.077" y="972.47" width="37.33" height="37.33" transform="rotate(-180 113.077 972.47)" stroke="#599D92" stroke-width="2"/>
<rect x="150.407" y="972.47" width="37.33" height="37.33" transform="rotate(-180 150.407 972.47)" stroke="#599D92" stroke-width="2"/>
<rect x="187.737" y="972.47" width="37.33" height="37.33" transform="rotate(-180 187.737 972.47)" stroke="#599D92" stroke-width="2"/>
<rect x="225.067" y="972.47" width="37.33" height="37.33" transform="rotate(-180 225.067 972.47)" stroke="#599D92" stroke-width="2"/>
<rect x="262.397" y="972.47" width="37.33" height="37.33" transform="rotate(-180 262.397 972.47)" stroke="#599D92" stroke-width="2"/>
<rect x="299.727" y="972.47" width="37.33" height="37.33" transform="rotate(-180 299.727 972.47)" stroke="#599D92" stroke-width="2"/>
<rect x="337.057" y="972.47" width="37.33" height="37.33" transform="rotate(-180 337.057 972.47)" stroke="#599D92" stroke-width="2"/>
<rect x="374.386" y="972.47" width="37.33" height="37.33" transform="rotate(-180 374.386 972.47)" stroke="#599D92" stroke-width="2"/>
<rect x="411.717" y="972.47" width="37.33" height="37.33" transform="rotate(-180 411.717 972.47)" stroke="#599D92" stroke-width="2"/>
<rect x="449.046" y="972.47" width="37.33" height="37.33" transform="rotate(-180 449.046 972.47)" stroke="#599D92" stroke-width="2"/>
<rect x="38.4169" y="1009.8" width="37.33" height="37.33" transform="rotate(-180 38.4169 1009.8)" stroke="#599D92" stroke-width="2"/>
<rect x="75.7468" y="1009.8" width="37.33" height="37.33" transform="rotate(-180 75.7468 1009.8)" stroke="#599D92" stroke-width="2"/>
<rect x="113.077" y="1009.8" width="37.33" height="37.33" transform="rotate(-180 113.077 1009.8)" stroke="#599D92" stroke-width="2"/>
<rect x="150.407" y="1009.8" width="37.33" height="37.33" transform="rotate(-180 150.407 1009.8)" stroke="#599D92" stroke-width="2"/>
<rect x="187.737" y="1009.8" width="37.33" height="37.33" transform="rotate(-180 187.737 1009.8)" stroke="#599D92" stroke-width="2"/>
<rect x="225.067" y="1009.8" width="37.33" height="37.33" transform="rotate(-180 225.067 1009.8)" stroke="#599D92" stroke-width="2"/>
<rect x="262.397" y="1009.8" width="37.33" height="37.33" transform="rotate(-180 262.397 1009.8)" stroke="#599D92" stroke-width="2"/>
<rect x="299.727" y="1009.8" width="37.33" height="37.33" transform="rotate(-180 299.727 1009.8)" stroke="#599D92" stroke-width="2"/>
<rect x="337.057" y="1009.8" width="37.33" height="37.33" transform="rotate(-180 337.057 1009.8)" stroke="#599D92" stroke-width="2"/>
<rect x="374.386" y="1009.8" width="37.33" height="37.33" transform="rotate(-180 374.386 1009.8)" stroke="#599D92" stroke-width="2"/>
<rect x="411.717" y="1009.8" width="37.33" height="37.33" transform="rotate(-180 411.717 1009.8)" stroke="#599D92" stroke-width="2"/>
<rect x="449.046" y="1009.8" width="37.33" height="37.33" transform="rotate(-180 449.046 1009.8)" stroke="#599D92" stroke-width="2"/>
<rect x="38.4169" y="1047.13" width="37.33" height="37.33" transform="rotate(-180 38.4169 1047.13)" stroke="#599D92" stroke-width="2"/>
<rect x="75.7468" y="1047.13" width="37.33" height="37.33" transform="rotate(-180 75.7468 1047.13)" stroke="#599D92" stroke-width="2"/>
<rect x="113.077" y="1047.13" width="37.33" height="37.33" transform="rotate(-180 113.077 1047.13)" stroke="#599D92" stroke-width="2"/>
<rect x="150.407" y="1047.13" width="37.33" height="37.33" transform="rotate(-180 150.407 1047.13)" stroke="#599D92" stroke-width="2"/>
<rect x="187.737" y="1047.13" width="37.33" height="37.33" transform="rotate(-180 187.737 1047.13)" stroke="#599D92" stroke-width="2"/>
<rect x="225.067" y="1047.13" width="37.33" height="37.33" transform="rotate(-180 225.067 1047.13)" stroke="#599D92" stroke-width="2"/>
<rect x="262.397" y="1047.13" width="37.33" height="37.33" transform="rotate(-180 262.397 1047.13)" stroke="#599D92" stroke-width="2"/>
<rect x="299.727" y="1047.13" width="37.33" height="37.33" transform="rotate(-180 299.727 1047.13)" stroke="#599D92" stroke-width="2"/>
<rect x="337.057" y="1047.13" width="37.33" height="37.33" transform="rotate(-180 337.057 1047.13)" stroke="#599D92" stroke-width="2"/>
<rect x="374.386" y="1047.13" width="37.33" height="37.33" transform="rotate(-180 374.386 1047.13)" stroke="#599D92" stroke-width="2"/>
<rect x="411.717" y="1047.13" width="37.33" height="37.33" transform="rotate(-180 411.717 1047.13)" stroke="#599D92" stroke-width="2"/>
<rect x="449.046" y="1047.13" width="37.33" height="37.33" transform="rotate(-180 449.046 1047.13)" stroke="#599D92" stroke-width="2"/>
<rect x="38.4169" y="1084.46" width="37.33" height="37.33" transform="rotate(-180 38.4169 1084.46)" stroke="#599D92" stroke-width="2"/>
<rect x="75.7468" y="1084.46" width="37.33" height="37.33" transform="rotate(-180 75.7468 1084.46)" stroke="#599D92" stroke-width="2"/>
<rect x="113.077" y="1084.46" width="37.33" height="37.33" transform="rotate(-180 113.077 1084.46)" stroke="#599D92" stroke-width="2"/>
<rect x="150.407" y="1084.46" width="37.33" height="37.33" transform="rotate(-180 150.407 1084.46)" stroke="#599D92" stroke-width="2"/>
<rect x="187.737" y="1084.46" width="37.33" height="37.33" transform="rotate(-180 187.737 1084.46)" stroke="#599D92" stroke-width="2"/>
<rect x="225.067" y="1084.46" width="37.33" height="37.33" transform="rotate(-180 225.067 1084.46)" stroke="#599D92" stroke-width="2"/>
<rect x="262.397" y="1084.46" width="37.33" height="37.33" transform="rotate(-180 262.397 1084.46)" stroke="#599D92" stroke-width="2"/>
<rect x="299.727" y="1084.46" width="37.33" height="37.33" transform="rotate(-180 299.727 1084.46)" stroke="#599D92" stroke-width="2"/>
<rect x="337.057" y="1084.46" width="37.33" height="37.33" transform="rotate(-180 337.057 1084.46)" stroke="#599D92" stroke-width="2"/>
<rect x="374.386" y="1084.46" width="37.33" height="37.33" transform="rotate(-180 374.386 1084.46)" stroke="#599D92" stroke-width="2"/>
<rect x="411.717" y="1084.46" width="37.33" height="37.33" transform="rotate(-180 411.717 1084.46)" stroke="#599D92" stroke-width="2"/>
<rect x="449.046" y="1084.46" width="37.33" height="37.33" transform="rotate(-180 449.046 1084.46)" stroke="#599D92" stroke-width="2"/>
<rect x="38.4169" y="1121.79" width="37.33" height="37.33" transform="rotate(-180 38.4169 1121.79)" stroke="#599D92" stroke-width="2"/>
<rect x="75.7468" y="1121.79" width="37.33" height="37.33" transform="rotate(-180 75.7468 1121.79)" stroke="#599D92" stroke-width="2"/>
<rect x="113.077" y="1121.79" width="37.33" height="37.33" transform="rotate(-180 113.077 1121.79)" stroke="#599D92" stroke-width="2"/>
<rect x="150.407" y="1121.79" width="37.33" height="37.33" transform="rotate(-180 150.407 1121.79)" stroke="#599D92" stroke-width="2"/>
<rect x="187.737" y="1121.79" width="37.33" height="37.33" transform="rotate(-180 187.737 1121.79)" stroke="#599D92" stroke-width="2"/>
<rect x="225.067" y="1121.79" width="37.33" height="37.33" transform="rotate(-180 225.067 1121.79)" stroke="#599D92" stroke-width="2"/>
<rect x="262.397" y="1121.79" width="37.33" height="37.33" transform="rotate(-180 262.397 1121.79)" stroke="#599D92" stroke-width="2"/>
<rect x="299.727" y="1121.79" width="37.33" height="37.33" transform="rotate(-180 299.727 1121.79)" stroke="#599D92" stroke-width="2"/>
<rect x="337.057" y="1121.79" width="37.33" height="37.33" transform="rotate(-180 337.057 1121.79)" stroke="#599D92" stroke-width="2"/>
<rect x="374.386" y="1121.79" width="37.33" height="37.33" transform="rotate(-180 374.386 1121.79)" stroke="#599D92" stroke-width="2"/>
<rect x="411.717" y="1121.79" width="37.33" height="37.33" transform="rotate(-180 411.717 1121.79)" stroke="#599D92" stroke-width="2"/>
<rect x="449.046" y="1121.79" width="37.33" height="37.33" transform="rotate(-180 449.046 1121.79)" stroke="#599D92" stroke-width="2"/>
<rect x="38.4169" y="1159.12" width="37.33" height="37.33" transform="rotate(-180 38.4169 1159.12)" stroke="#599D92" stroke-width="2"/>
<rect x="75.7468" y="1159.12" width="37.33" height="37.33" transform="rotate(-180 75.7468 1159.12)" stroke="#599D92" stroke-width="2"/>
<rect x="113.077" y="1159.12" width="37.33" height="37.33" transform="rotate(-180 113.077 1159.12)" stroke="#599D92" stroke-width="2"/>
<rect x="150.407" y="1159.12" width="37.33" height="37.33" transform="rotate(-180 150.407 1159.12)" stroke="#599D92" stroke-width="2"/>
<rect x="187.737" y="1159.12" width="37.33" height="37.33" transform="rotate(-180 187.737 1159.12)" stroke="#599D92" stroke-width="2"/>
<rect x="225.067" y="1159.12" width="37.33" height="37.33" transform="rotate(-180 225.067 1159.12)" stroke="#599D92" stroke-width="2"/>
<rect x="262.397" y="1159.12" width="37.33" height="37.33" transform="rotate(-180 262.397 1159.12)" stroke="#599D92" stroke-width="2"/>
<rect x="299.727" y="1159.12" width="37.33" height="37.33" transform="rotate(-180 299.727 1159.12)" stroke="#599D92" stroke-width="2"/>
<rect x="337.057" y="1159.12" width="37.33" height="37.33" transform="rotate(-180 337.057 1159.12)" stroke="#599D92" stroke-width="2"/>
<rect x="374.386" y="1159.12" width="37.33" height="37.33" transform="rotate(-180 374.386 1159.12)" stroke="#599D92" stroke-width="2"/>
<rect x="411.717" y="1159.12" width="37.33" height="37.33" transform="rotate(-180 411.717 1159.12)" stroke="#599D92" stroke-width="2"/>
<rect x="449.046" y="1159.12" width="37.33" height="37.33" transform="rotate(-180 449.046 1159.12)" stroke="#599D92" stroke-width="2"/>
<rect x="38.4169" y="1196.45" width="37.33" height="37.33" transform="rotate(-180 38.4169 1196.45)" stroke="#599D92" stroke-width="2"/>
<rect x="75.7468" y="1196.45" width="37.33" height="37.33" transform="rotate(-180 75.7468 1196.45)" stroke="#599D92" stroke-width="2"/>
<rect x="113.077" y="1196.45" width="37.33" height="37.33" transform="rotate(-180 113.077 1196.45)" stroke="#599D92" stroke-width="2"/>
<rect x="150.407" y="1196.45" width="37.33" height="37.33" transform="rotate(-180 150.407 1196.45)" stroke="#599D92" stroke-width="2"/>
<rect x="187.737" y="1196.45" width="37.33" height="37.33" transform="rotate(-180 187.737 1196.45)" stroke="#599D92" stroke-width="2"/>
<rect x="225.067" y="1196.45" width="37.33" height="37.33" transform="rotate(-180 225.067 1196.45)" stroke="#599D92" stroke-width="2"/>
<rect x="262.397" y="1196.45" width="37.33" height="37.33" transform="rotate(-180 262.397 1196.45)" stroke="#599D92" stroke-width="2"/>
<rect x="299.727" y="1196.45" width="37.33" height="37.33" transform="rotate(-180 299.727 1196.45)" stroke="#599D92" stroke-width="2"/>
<rect x="337.057" y="1196.45" width="37.33" height="37.33" transform="rotate(-180 337.057 1196.45)" stroke="#599D92" stroke-width="2"/>
<rect x="374.386" y="1196.45" width="37.33" height="37.33" transform="rotate(-180 374.386 1196.45)" stroke="#599D92" stroke-width="2"/>
<rect x="411.717" y="1196.45" width="37.33" height="37.33" transform="rotate(-180 411.717 1196.45)" stroke="#599D92" stroke-width="2"/>
<rect x="449.046" y="1196.45" width="37.33" height="37.33" transform="rotate(-180 449.046 1196.45)" stroke="#599D92" stroke-width="2"/>
<rect x="38.4169" y="1233.78" width="37.33" height="37.33" transform="rotate(-180 38.4169 1233.78)" stroke="#599D92" stroke-width="2"/>
<rect x="75.7468" y="1233.78" width="37.33" height="37.33" transform="rotate(-180 75.7468 1233.78)" stroke="#599D92" stroke-width="2"/>
<rect x="113.077" y="1233.78" width="37.33" height="37.33" transform="rotate(-180 113.077 1233.78)" stroke="#599D92" stroke-width="2"/>
<rect x="150.407" y="1233.78" width="37.33" height="37.33" transform="rotate(-180 150.407 1233.78)" stroke="#599D92" stroke-width="2"/>
<rect x="187.737" y="1233.78" width="37.33" height="37.33" transform="rotate(-180 187.737 1233.78)" stroke="#599D92" stroke-width="2"/>
<rect x="225.067" y="1233.78" width="37.33" height="37.33" transform="rotate(-180 225.067 1233.78)" stroke="#599D92" stroke-width="2"/>
<rect x="262.397" y="1233.78" width="37.33" height="37.33" transform="rotate(-180 262.397 1233.78)" stroke="#599D92" stroke-width="2"/>
<rect x="299.727" y="1233.78" width="37.33" height="37.33" transform="rotate(-180 299.727 1233.78)" stroke="#599D92" stroke-width="2"/>
<rect x="337.057" y="1233.78" width="37.33" height="37.33" transform="rotate(-180 337.057 1233.78)" stroke="#599D92" stroke-width="2"/>
<rect x="374.386" y="1233.78" width="37.33" height="37.33" transform="rotate(-180 374.386 1233.78)" stroke="#599D92" stroke-width="2"/>
<rect x="411.717" y="1233.78" width="37.33" height="37.33" transform="rotate(-180 411.717 1233.78)" stroke="#599D92" stroke-width="2"/>
<rect x="449.046" y="1233.78" width="37.33" height="37.33" transform="rotate(-180 449.046 1233.78)" stroke="#599D92" stroke-width="2"/>
<rect x="38.4169" y="1271.11" width="37.33" height="37.33" transform="rotate(-180 38.4169 1271.11)" stroke="#599D92" stroke-width="2"/>
<rect x="75.7468" y="1271.11" width="37.33" height="37.33" transform="rotate(-180 75.7468 1271.11)" stroke="#599D92" stroke-width="2"/>
<rect x="113.077" y="1271.11" width="37.33" height="37.33" transform="rotate(-180 113.077 1271.11)" stroke="#599D92" stroke-width="2"/>
<rect x="150.407" y="1271.11" width="37.33" height="37.33" transform="rotate(-180 150.407 1271.11)" stroke="#599D92" stroke-width="2"/>
<rect x="187.737" y="1271.11" width="37.33" height="37.33" transform="rotate(-180 187.737 1271.11)" stroke="#599D92" stroke-width="2"/>
<rect x="225.067" y="1271.11" width="37.33" height="37.33" transform="rotate(-180 225.067 1271.11)" stroke="#599D92" stroke-width="2"/>
<rect x="262.397" y="1271.11" width="37.33" height="37.33" transform="rotate(-180 262.397 1271.11)" stroke="#599D92" stroke-width="2"/>
<rect x="299.727" y="1271.11" width="37.33" height="37.33" transform="rotate(-180 299.727 1271.11)" stroke="#599D92" stroke-width="2"/>
<rect x="337.057" y="1271.11" width="37.33" height="37.33" transform="rotate(-180 337.057 1271.11)" stroke="#599D92" stroke-width="2"/>
<rect x="374.386" y="1271.11" width="37.33" height="37.33" transform="rotate(-180 374.386 1271.11)" stroke="#599D92" stroke-width="2"/>
<rect x="411.717" y="1271.11" width="37.33" height="37.33" transform="rotate(-180 411.717 1271.11)" stroke="#599D92" stroke-width="2"/>
<rect x="449.046" y="1271.11" width="37.33" height="37.33" transform="rotate(-180 449.046 1271.11)" stroke="#599D92" stroke-width="2"/>
<rect x="38.4169" y="1308.44" width="37.33" height="37.33" transform="rotate(-180 38.4169 1308.44)" stroke="#599D92" stroke-width="2"/>
<rect x="75.7468" y="1308.44" width="37.33" height="37.33" transform="rotate(-180 75.7468 1308.44)" stroke="#599D92" stroke-width="2"/>
<rect x="113.077" y="1308.44" width="37.33" height="37.33" transform="rotate(-180 113.077 1308.44)" stroke="#599D92" stroke-width="2"/>
<rect x="150.407" y="1308.44" width="37.33" height="37.33" transform="rotate(-180 150.407 1308.44)" stroke="#599D92" stroke-width="2"/>
<rect x="187.737" y="1308.44" width="37.33" height="37.33" transform="rotate(-180 187.737 1308.44)" stroke="#599D92" stroke-width="2"/>
<rect x="225.067" y="1308.44" width="37.33" height="37.33" transform="rotate(-180 225.067 1308.44)" stroke="#599D92" stroke-width="2"/>
<rect x="262.397" y="1308.44" width="37.33" height="37.33" transform="rotate(-180 262.397 1308.44)" stroke="#599D92" stroke-width="2"/>
<rect x="299.727" y="1308.44" width="37.33" height="37.33" transform="rotate(-180 299.727 1308.44)" stroke="#599D92" stroke-width="2"/>
<rect x="337.057" y="1308.44" width="37.33" height="37.33" transform="rotate(-180 337.057 1308.44)" stroke="#599D92" stroke-width="2"/>
<rect x="374.386" y="1308.44" width="37.33" height="37.33" transform="rotate(-180 374.386 1308.44)" stroke="#599D92" stroke-width="2"/>
<rect x="411.717" y="1308.44" width="37.33" height="37.33" transform="rotate(-180 411.717 1308.44)" stroke="#599D92" stroke-width="2"/>
<rect x="449.046" y="1308.44" width="37.33" height="37.33" transform="rotate(-180 449.046 1308.44)" stroke="#599D92" stroke-width="2"/>
<rect x="38.4169" y="599.17" width="37.33" height="37.33" transform="rotate(-180 38.4169 599.17)" stroke="#599D92" stroke-width="2"/>
<rect x="75.7468" y="599.17" width="37.33" height="37.33" transform="rotate(-180 75.7468 599.17)" stroke="#599D92" stroke-width="2"/>
<rect x="113.077" y="599.17" width="37.33" height="37.33" transform="rotate(-180 113.077 599.17)" stroke="#599D92" stroke-width="2"/>
<rect x="150.407" y="599.17" width="37.33" height="37.33" transform="rotate(-180 150.407 599.17)" stroke="#599D92" stroke-width="2"/>
<rect x="187.737" y="599.17" width="37.33" height="37.33" transform="rotate(-180 187.737 599.17)" stroke="#599D92" stroke-width="2"/>
<rect x="225.067" y="599.17" width="37.33" height="37.33" transform="rotate(-180 225.067 599.17)" stroke="#599D92" stroke-width="2"/>
<rect x="262.397" y="599.17" width="37.33" height="37.33" transform="rotate(-180 262.397 599.17)" stroke="#599D92" stroke-width="2"/>
<rect x="299.727" y="599.17" width="37.33" height="37.33" transform="rotate(-180 299.727 599.17)" stroke="#599D92" stroke-width="2"/>
<rect x="337.057" y="599.17" width="37.33" height="37.33" transform="rotate(-180 337.057 599.17)" stroke="#599D92" stroke-width="2"/>
<rect x="374.386" y="599.17" width="37.33" height="37.33" transform="rotate(-180 374.386 599.17)" stroke="#599D92" stroke-width="2"/>
<rect x="411.717" y="599.17" width="37.33" height="37.33" transform="rotate(-180 411.717 599.17)" stroke="#599D92" stroke-width="2"/>
<rect x="449.046" y="599.17" width="37.33" height="37.33" transform="rotate(-180 449.046 599.17)" stroke="#599D92" stroke-width="2"/>
<rect x="38.4169" y="561.84" width="37.33" height="37.33" transform="rotate(-180 38.4169 561.84)" stroke="#599D92" stroke-width="2"/>
<rect x="75.7468" y="561.84" width="37.33" height="37.33" transform="rotate(-180 75.7468 561.84)" stroke="#599D92" stroke-width="2"/>
<rect x="113.077" y="561.84" width="37.33" height="37.33" transform="rotate(-180 113.077 561.84)" stroke="#599D92" stroke-width="2"/>
<rect x="150.407" y="561.84" width="37.33" height="37.33" transform="rotate(-180 150.407 561.84)" stroke="#599D92" stroke-width="2"/>
<rect x="187.737" y="561.84" width="37.33" height="37.33" transform="rotate(-180 187.737 561.84)" stroke="#599D92" stroke-width="2"/>
<rect x="225.067" y="561.84" width="37.33" height="37.33" transform="rotate(-180 225.067 561.84)" stroke="#599D92" stroke-width="2"/>
<rect x="262.397" y="561.84" width="37.33" height="37.33" transform="rotate(-180 262.397 561.84)" stroke="#599D92" stroke-width="2"/>
<rect x="299.727" y="561.84" width="37.33" height="37.33" transform="rotate(-180 299.727 561.84)" stroke="#599D92" stroke-width="2"/>
<rect x="337.057" y="561.84" width="37.33" height="37.33" transform="rotate(-180 337.057 561.84)" stroke="#599D92" stroke-width="2"/>
<rect x="374.386" y="561.84" width="37.33" height="37.33" transform="rotate(-180 374.386 561.84)" stroke="#599D92" stroke-width="2"/>
<rect x="411.717" y="561.84" width="37.33" height="37.33" transform="rotate(-180 411.717 561.84)" stroke="#599D92" stroke-width="2"/>
<rect x="449.046" y="561.84" width="37.33" height="37.33" transform="rotate(-180 449.046 561.84)" stroke="#599D92" stroke-width="2"/>
<rect x="38.4169" y="524.51" width="37.33" height="37.33" transform="rotate(-180 38.4169 524.51)" stroke="#599D92" stroke-width="2"/>
<rect x="75.7468" y="524.51" width="37.33" height="37.33" transform="rotate(-180 75.7468 524.51)" stroke="#599D92" stroke-width="2"/>
<rect x="113.077" y="524.51" width="37.33" height="37.33" transform="rotate(-180 113.077 524.51)" stroke="#599D92" stroke-width="2"/>
<rect x="150.407" y="524.51" width="37.33" height="37.33" transform="rotate(-180 150.407 524.51)" stroke="#599D92" stroke-width="2"/>
<rect x="187.737" y="524.51" width="37.33" height="37.33" transform="rotate(-180 187.737 524.51)" stroke="#599D92" stroke-width="2"/>
<rect x="225.067" y="524.51" width="37.33" height="37.33" transform="rotate(-180 225.067 524.51)" stroke="#599D92" stroke-width="2"/>
<rect x="262.397" y="524.51" width="37.33" height="37.33" transform="rotate(-180 262.397 524.51)" stroke="#599D92" stroke-width="2"/>
<rect x="299.727" y="524.51" width="37.33" height="37.33" transform="rotate(-180 299.727 524.51)" stroke="#599D92" stroke-width="2"/>
<rect x="337.057" y="524.51" width="37.33" height="37.33" transform="rotate(-180 337.057 524.51)" stroke="#599D92" stroke-width="2"/>
<rect x="374.386" y="524.51" width="37.33" height="37.33" transform="rotate(-180 374.386 524.51)" stroke="#599D92" stroke-width="2"/>
<rect x="411.717" y="524.51" width="37.33" height="37.33" transform="rotate(-180 411.717 524.51)" stroke="#599D92" stroke-width="2"/>
<rect x="449.046" y="524.51" width="37.33" height="37.33" transform="rotate(-180 449.046 524.51)" stroke="#599D92" stroke-width="2"/>
<rect x="38.4169" y="487.181" width="37.33" height="37.33" transform="rotate(-180 38.4169 487.181)" stroke="#599D92" stroke-width="2"/>
<rect x="75.7468" y="487.181" width="37.33" height="37.33" transform="rotate(-180 75.7468 487.181)" stroke="#599D92" stroke-width="2"/>
<rect x="113.077" y="487.181" width="37.33" height="37.33" transform="rotate(-180 113.077 487.181)" stroke="#599D92" stroke-width="2"/>
<rect x="150.407" y="487.181" width="37.33" height="37.33" transform="rotate(-180 150.407 487.181)" stroke="#599D92" stroke-width="2"/>
<rect x="187.737" y="487.181" width="37.33" height="37.33" transform="rotate(-180 187.737 487.181)" stroke="#599D92" stroke-width="2"/>
<rect x="225.067" y="487.181" width="37.33" height="37.33" transform="rotate(-180 225.067 487.181)" stroke="#599D92" stroke-width="2"/>
<rect x="262.397" y="487.181" width="37.33" height="37.33" transform="rotate(-180 262.397 487.181)" stroke="#599D92" stroke-width="2"/>
<rect x="299.727" y="487.181" width="37.33" height="37.33" transform="rotate(-180 299.727 487.181)" stroke="#599D92" stroke-width="2"/>
<rect x="337.057" y="487.181" width="37.33" height="37.33" transform="rotate(-180 337.057 487.181)" stroke="#599D92" stroke-width="2"/>
<rect x="374.386" y="487.181" width="37.33" height="37.33" transform="rotate(-180 374.386 487.181)" stroke="#599D92" stroke-width="2"/>
<rect x="411.717" y="487.181" width="37.33" height="37.33" transform="rotate(-180 411.717 487.181)" stroke="#599D92" stroke-width="2"/>
<rect x="449.046" y="487.181" width="37.33" height="37.33" transform="rotate(-180 449.046 487.181)" stroke="#599D92" stroke-width="2"/>
<rect x="38.4169" y="449.851" width="37.33" height="37.33" transform="rotate(-180 38.4169 449.851)" stroke="#599D92" stroke-width="2"/>
<rect x="75.7468" y="449.851" width="37.33" height="37.33" transform="rotate(-180 75.7468 449.851)" stroke="#599D92" stroke-width="2"/>
<rect x="113.077" y="449.851" width="37.33" height="37.33" transform="rotate(-180 113.077 449.851)" stroke="#599D92" stroke-width="2"/>
<rect x="150.407" y="449.851" width="37.33" height="37.33" transform="rotate(-180 150.407 449.851)" stroke="#599D92" stroke-width="2"/>
<rect x="187.737" y="449.851" width="37.33" height="37.33" transform="rotate(-180 187.737 449.851)" stroke="#599D92" stroke-width="2"/>
<rect x="225.067" y="449.851" width="37.33" height="37.33" transform="rotate(-180 225.067 449.851)" stroke="#599D92" stroke-width="2"/>
<rect x="262.397" y="449.851" width="37.33" height="37.33" transform="rotate(-180 262.397 449.851)" stroke="#599D92" stroke-width="2"/>
<rect x="299.727" y="449.851" width="37.33" height="37.33" transform="rotate(-180 299.727 449.851)" stroke="#599D92" stroke-width="2"/>
<rect x="337.057" y="449.851" width="37.33" height="37.33" transform="rotate(-180 337.057 449.851)" stroke="#599D92" stroke-width="2"/>
<rect x="374.386" y="449.851" width="37.33" height="37.33" transform="rotate(-180 374.386 449.851)" stroke="#599D92" stroke-width="2"/>
<rect x="411.717" y="449.851" width="37.33" height="37.33" transform="rotate(-180 411.717 449.851)" stroke="#599D92" stroke-width="2"/>
<rect x="449.046" y="449.851" width="37.33" height="37.33" transform="rotate(-180 449.046 449.851)" stroke="#599D92" stroke-width="2"/>
<rect x="38.4169" y="412.521" width="37.33" height="37.33" transform="rotate(-180 38.4169 412.521)" stroke="#599D92" stroke-width="2"/>
<rect x="75.7468" y="412.521" width="37.33" height="37.33" transform="rotate(-180 75.7468 412.521)" stroke="#599D92" stroke-width="2"/>
<rect x="113.077" y="412.521" width="37.33" height="37.33" transform="rotate(-180 113.077 412.521)" stroke="#599D92" stroke-width="2"/>
<rect x="150.407" y="412.521" width="37.33" height="37.33" transform="rotate(-180 150.407 412.521)" stroke="#599D92" stroke-width="2"/>
<rect x="187.737" y="412.521" width="37.33" height="37.33" transform="rotate(-180 187.737 412.521)" stroke="#599D92" stroke-width="2"/>
<rect x="225.067" y="412.521" width="37.33" height="37.33" transform="rotate(-180 225.067 412.521)" stroke="#599D92" stroke-width="2"/>
<rect x="262.397" y="412.521" width="37.33" height="37.33" transform="rotate(-180 262.397 412.521)" stroke="#599D92" stroke-width="2"/>
<rect x="299.727" y="412.521" width="37.33" height="37.33" transform="rotate(-180 299.727 412.521)" stroke="#599D92" stroke-width="2"/>
<rect x="337.057" y="412.521" width="37.33" height="37.33" transform="rotate(-180 337.057 412.521)" stroke="#599D92" stroke-width="2"/>
<rect x="374.386" y="412.521" width="37.33" height="37.33" transform="rotate(-180 374.386 412.521)" stroke="#599D92" stroke-width="2"/>
<rect x="411.717" y="412.521" width="37.33" height="37.33" transform="rotate(-180 411.717 412.521)" stroke="#599D92" stroke-width="2"/>
<rect x="449.046" y="412.521" width="37.33" height="37.33" transform="rotate(-180 449.046 412.521)" stroke="#599D92" stroke-width="2"/>
<rect x="38.4169" y="375.191" width="37.33" height="37.33" transform="rotate(-180 38.4169 375.191)" stroke="#599D92" stroke-width="2"/>
<rect x="75.7468" y="375.191" width="37.33" height="37.33" transform="rotate(-180 75.7468 375.191)" stroke="#599D92" stroke-width="2"/>
<rect x="113.077" y="375.191" width="37.33" height="37.33" transform="rotate(-180 113.077 375.191)" stroke="#599D92" stroke-width="2"/>
<rect x="150.407" y="375.191" width="37.33" height="37.33" transform="rotate(-180 150.407 375.191)" stroke="#599D92" stroke-width="2"/>
<rect x="187.737" y="375.191" width="37.33" height="37.33" transform="rotate(-180 187.737 375.191)" stroke="#599D92" stroke-width="2"/>
<rect x="225.067" y="375.191" width="37.33" height="37.33" transform="rotate(-180 225.067 375.191)" stroke="#599D92" stroke-width="2"/>
<rect x="262.397" y="375.191" width="37.33" height="37.33" transform="rotate(-180 262.397 375.191)" stroke="#599D92" stroke-width="2"/>
<rect x="299.727" y="375.191" width="37.33" height="37.33" transform="rotate(-180 299.727 375.191)" stroke="#599D92" stroke-width="2"/>
<rect x="337.057" y="375.191" width="37.33" height="37.33" transform="rotate(-180 337.057 375.191)" stroke="#599D92" stroke-width="2"/>
<rect x="374.386" y="375.191" width="37.33" height="37.33" transform="rotate(-180 374.386 375.191)" stroke="#599D92" stroke-width="2"/>
<rect x="411.717" y="375.191" width="37.33" height="37.33" transform="rotate(-180 411.717 375.191)" stroke="#599D92" stroke-width="2"/>
<rect x="449.046" y="375.191" width="37.33" height="37.33" transform="rotate(-180 449.046 375.191)" stroke="#599D92" stroke-width="2"/>
<rect x="38.4169" y="337.861" width="37.33" height="37.33" transform="rotate(-180 38.4169 337.861)" stroke="#599D92" stroke-width="2"/>
<rect x="75.7468" y="337.861" width="37.33" height="37.33" transform="rotate(-180 75.7468 337.861)" stroke="#599D92" stroke-width="2"/>
<rect x="113.077" y="337.861" width="37.33" height="37.33" transform="rotate(-180 113.077 337.861)" stroke="#599D92" stroke-width="2"/>
<rect x="150.407" y="337.861" width="37.33" height="37.33" transform="rotate(-180 150.407 337.861)" stroke="#599D92" stroke-width="2"/>
<rect x="187.737" y="337.861" width="37.33" height="37.33" transform="rotate(-180 187.737 337.861)" stroke="#599D92" stroke-width="2"/>
<rect x="225.067" y="337.861" width="37.33" height="37.33" transform="rotate(-180 225.067 337.861)" stroke="#599D92" stroke-width="2"/>
<rect x="262.397" y="337.861" width="37.33" height="37.33" transform="rotate(-180 262.397 337.861)" stroke="#599D92" stroke-width="2"/>
<rect x="299.727" y="337.861" width="37.33" height="37.33" transform="rotate(-180 299.727 337.861)" stroke="#599D92" stroke-width="2"/>
<rect x="337.057" y="337.861" width="37.33" height="37.33" transform="rotate(-180 337.057 337.861)" stroke="#599D92" stroke-width="2"/>
<rect x="374.386" y="337.861" width="37.33" height="37.33" transform="rotate(-180 374.386 337.861)" stroke="#599D92" stroke-width="2"/>
<rect x="411.717" y="337.861" width="37.33" height="37.33" transform="rotate(-180 411.717 337.861)" stroke="#599D92" stroke-width="2"/>
<rect x="449.046" y="337.861" width="37.33" height="37.33" transform="rotate(-180 449.046 337.861)" stroke="#599D92" stroke-width="2"/>
<rect x="38.4169" y="300.531" width="37.33" height="37.33" transform="rotate(-180 38.4169 300.531)" stroke="#599D92" stroke-width="2"/>
<rect x="75.7468" y="300.531" width="37.33" height="37.33" transform="rotate(-180 75.7468 300.531)" stroke="#599D92" stroke-width="2"/>
<rect x="113.077" y="300.531" width="37.33" height="37.33" transform="rotate(-180 113.077 300.531)" stroke="#599D92" stroke-width="2"/>
<rect x="150.407" y="300.531" width="37.33" height="37.33" transform="rotate(-180 150.407 300.531)" stroke="#599D92" stroke-width="2"/>
<rect x="187.737" y="300.531" width="37.33" height="37.33" transform="rotate(-180 187.737 300.531)" stroke="#599D92" stroke-width="2"/>
<rect x="225.067" y="300.531" width="37.33" height="37.33" transform="rotate(-180 225.067 300.531)" stroke="#599D92" stroke-width="2"/>
<rect x="262.397" y="300.531" width="37.33" height="37.33" transform="rotate(-180 262.397 300.531)" stroke="#599D92" stroke-width="2"/>
<rect x="299.727" y="300.531" width="37.33" height="37.33" transform="rotate(-180 299.727 300.531)" stroke="#599D92" stroke-width="2"/>
<rect x="337.057" y="300.531" width="37.33" height="37.33" transform="rotate(-180 337.057 300.531)" stroke="#599D92" stroke-width="2"/>
<rect x="374.386" y="300.531" width="37.33" height="37.33" transform="rotate(-180 374.386 300.531)" stroke="#599D92" stroke-width="2"/>
<rect x="411.717" y="300.531" width="37.33" height="37.33" transform="rotate(-180 411.717 300.531)" stroke="#599D92" stroke-width="2"/>
<rect x="449.046" y="300.531" width="37.33" height="37.33" transform="rotate(-180 449.046 300.531)" stroke="#599D92" stroke-width="2"/>
<rect x="38.4169" y="263.202" width="37.33" height="37.33" transform="rotate(-180 38.4169 263.202)" stroke="#599D92" stroke-width="2"/>
<rect x="75.7468" y="263.202" width="37.33" height="37.33" transform="rotate(-180 75.7468 263.202)" stroke="#599D92" stroke-width="2"/>
<rect x="113.077" y="263.202" width="37.33" height="37.33" transform="rotate(-180 113.077 263.202)" stroke="#599D92" stroke-width="2"/>
<rect x="150.407" y="263.202" width="37.33" height="37.33" transform="rotate(-180 150.407 263.202)" stroke="#599D92" stroke-width="2"/>
<rect x="187.737" y="263.202" width="37.33" height="37.33" transform="rotate(-180 187.737 263.202)" stroke="#599D92" stroke-width="2"/>
<rect x="225.067" y="263.202" width="37.33" height="37.33" transform="rotate(-180 225.067 263.202)" stroke="#599D92" stroke-width="2"/>
<rect x="262.397" y="263.202" width="37.33" height="37.33" transform="rotate(-180 262.397 263.202)" stroke="#599D92" stroke-width="2"/>
<rect x="299.727" y="263.202" width="37.33" height="37.33" transform="rotate(-180 299.727 263.202)" stroke="#599D92" stroke-width="2"/>
<rect x="337.057" y="263.202" width="37.33" height="37.33" transform="rotate(-180 337.057 263.202)" stroke="#599D92" stroke-width="2"/>
<rect x="374.386" y="263.202" width="37.33" height="37.33" transform="rotate(-180 374.386 263.202)" stroke="#599D92" stroke-width="2"/>
<rect x="411.717" y="263.202" width="37.33" height="37.33" transform="rotate(-180 411.717 263.202)" stroke="#599D92" stroke-width="2"/>
<rect x="449.046" y="263.202" width="37.33" height="37.33" transform="rotate(-180 449.046 263.202)" stroke="#599D92" stroke-width="2"/>
<rect x="38.4169" y="225.872" width="37.33" height="37.33" transform="rotate(-180 38.4169 225.872)" stroke="#599D92" stroke-width="2"/>
<rect x="75.7468" y="225.872" width="37.33" height="37.33" transform="rotate(-180 75.7468 225.872)" stroke="#599D92" stroke-width="2"/>
<rect x="113.077" y="225.872" width="37.33" height="37.33" transform="rotate(-180 113.077 225.872)" stroke="#599D92" stroke-width="2"/>
<rect x="150.407" y="225.872" width="37.33" height="37.33" transform="rotate(-180 150.407 225.872)" stroke="#599D92" stroke-width="2"/>
<rect x="187.737" y="225.872" width="37.33" height="37.33" transform="rotate(-180 187.737 225.872)" stroke="#599D92" stroke-width="2"/>
<rect x="225.067" y="225.872" width="37.33" height="37.33" transform="rotate(-180 225.067 225.872)" stroke="#599D92" stroke-width="2"/>
<rect x="262.397" y="225.872" width="37.33" height="37.33" transform="rotate(-180 262.397 225.872)" stroke="#599D92" stroke-width="2"/>
<rect x="299.727" y="225.872" width="37.33" height="37.33" transform="rotate(-180 299.727 225.872)" stroke="#599D92" stroke-width="2"/>
<rect x="337.057" y="225.872" width="37.33" height="37.33" transform="rotate(-180 337.057 225.872)" stroke="#599D92" stroke-width="2"/>
<rect x="374.386" y="225.872" width="37.33" height="37.33" transform="rotate(-180 374.386 225.872)" stroke="#599D92" stroke-width="2"/>
<rect x="411.717" y="225.872" width="37.33" height="37.33" transform="rotate(-180 411.717 225.872)" stroke="#599D92" stroke-width="2"/>
<rect x="449.046" y="225.872" width="37.33" height="37.33" transform="rotate(-180 449.046 225.872)" stroke="#599D92" stroke-width="2"/>
<rect x="38.4169" y="188.542" width="37.33" height="37.33" transform="rotate(-180 38.4169 188.542)" stroke="#599D92" stroke-width="2"/>
<rect x="75.7468" y="188.542" width="37.33" height="37.33" transform="rotate(-180 75.7468 188.542)" stroke="#599D92" stroke-width="2"/>
<rect x="113.077" y="188.542" width="37.33" height="37.33" transform="rotate(-180 113.077 188.542)" stroke="#599D92" stroke-width="2"/>
<rect x="150.407" y="188.542" width="37.33" height="37.33" transform="rotate(-180 150.407 188.542)" stroke="#599D92" stroke-width="2"/>
<rect x="187.737" y="188.542" width="37.33" height="37.33" transform="rotate(-180 187.737 188.542)" stroke="#599D92" stroke-width="2"/>
<rect x="225.067" y="188.542" width="37.33" height="37.33" transform="rotate(-180 225.067 188.542)" stroke="#599D92" stroke-width="2"/>
<rect x="262.397" y="188.542" width="37.33" height="37.33" transform="rotate(-180 262.397 188.542)" stroke="#599D92" stroke-width="2"/>
<rect x="299.727" y="188.542" width="37.33" height="37.33" transform="rotate(-180 299.727 188.542)" stroke="#599D92" stroke-width="2"/>
<rect x="337.057" y="188.542" width="37.33" height="37.33" transform="rotate(-180 337.057 188.542)" stroke="#599D92" stroke-width="2"/>
<rect x="374.386" y="188.542" width="37.33" height="37.33" transform="rotate(-180 374.386 188.542)" stroke="#599D92" stroke-width="2"/>
<rect x="411.717" y="188.542" width="37.33" height="37.33" transform="rotate(-180 411.717 188.542)" stroke="#599D92" stroke-width="2"/>
<rect x="449.046" y="188.542" width="37.33" height="37.33" transform="rotate(-180 449.046 188.542)" stroke="#599D92" stroke-width="2"/>
<rect x="38.4169" y="151.212" width="37.33" height="37.33" transform="rotate(-180 38.4169 151.212)" stroke="#599D92" stroke-width="2"/>
<rect x="75.7468" y="151.212" width="37.33" height="37.33" transform="rotate(-180 75.7468 151.212)" stroke="#599D92" stroke-width="2"/>
<rect x="113.077" y="151.212" width="37.33" height="37.33" transform="rotate(-180 113.077 151.212)" stroke="#599D92" stroke-width="2"/>
<rect x="150.407" y="151.212" width="37.33" height="37.33" transform="rotate(-180 150.407 151.212)" stroke="#599D92" stroke-width="2"/>
<rect x="187.737" y="151.212" width="37.33" height="37.33" transform="rotate(-180 187.737 151.212)" stroke="#599D92" stroke-width="2"/>
<rect x="225.067" y="151.212" width="37.33" height="37.33" transform="rotate(-180 225.067 151.212)" stroke="#599D92" stroke-width="2"/>
<rect x="262.397" y="151.212" width="37.33" height="37.33" transform="rotate(-180 262.397 151.212)" stroke="#599D92" stroke-width="2"/>
<rect x="299.727" y="151.212" width="37.33" height="37.33" transform="rotate(-180 299.727 151.212)" stroke="#599D92" stroke-width="2"/>
<rect x="337.057" y="151.212" width="37.33" height="37.33" transform="rotate(-180 337.057 151.212)" stroke="#599D92" stroke-width="2"/>
<rect x="374.386" y="151.212" width="37.33" height="37.33" transform="rotate(-180 374.386 151.212)" stroke="#599D92" stroke-width="2"/>
<rect x="411.717" y="151.212" width="37.33" height="37.33" transform="rotate(-180 411.717 151.212)" stroke="#599D92" stroke-width="2"/>
<rect x="449.046" y="151.212" width="37.33" height="37.33" transform="rotate(-180 449.046 151.212)" stroke="#599D92" stroke-width="2"/>
<rect x="38.4169" y="113.882" width="37.33" height="37.33" transform="rotate(-180 38.4169 113.882)" stroke="#599D92" stroke-width="2"/>
<rect x="75.7468" y="113.882" width="37.33" height="37.33" transform="rotate(-180 75.7468 113.882)" stroke="#599D92" stroke-width="2"/>
<rect x="113.077" y="113.882" width="37.33" height="37.33" transform="rotate(-180 113.077 113.882)" stroke="#599D92" stroke-width="2"/>
<rect x="150.407" y="113.882" width="37.33" height="37.33" transform="rotate(-180 150.407 113.882)" stroke="#599D92" stroke-width="2"/>
<rect x="187.737" y="113.882" width="37.33" height="37.33" transform="rotate(-180 187.737 113.882)" stroke="#599D92" stroke-width="2"/>
<rect x="225.067" y="113.882" width="37.33" height="37.33" transform="rotate(-180 225.067 113.882)" stroke="#599D92" stroke-width="2"/>
<rect x="262.397" y="113.882" width="37.33" height="37.33" transform="rotate(-180 262.397 113.882)" stroke="#599D92" stroke-width="2"/>
<rect x="299.727" y="113.882" width="37.33" height="37.33" transform="rotate(-180 299.727 113.882)" stroke="#599D92" stroke-width="2"/>
<rect x="337.057" y="113.882" width="37.33" height="37.33" transform="rotate(-180 337.057 113.882)" stroke="#599D92" stroke-width="2"/>
<rect x="374.386" y="113.882" width="37.33" height="37.33" transform="rotate(-180 374.386 113.882)" stroke="#599D92" stroke-width="2"/>
<rect x="411.717" y="113.882" width="37.33" height="37.33" transform="rotate(-180 411.717 113.882)" stroke="#599D92" stroke-width="2"/>
<rect x="449.046" y="113.882" width="37.33" height="37.33" transform="rotate(-180 449.046 113.882)" stroke="#599D92" stroke-width="2"/>
<rect x="38.4169" y="76.5525" width="37.33" height="37.33" transform="rotate(-180 38.4169 76.5525)" stroke="#599D92" stroke-width="2"/>
<rect x="75.7468" y="76.5525" width="37.33" height="37.33" transform="rotate(-180 75.7468 76.5525)" stroke="#599D92" stroke-width="2"/>
<rect x="113.077" y="76.5525" width="37.33" height="37.33" transform="rotate(-180 113.077 76.5525)" stroke="#599D92" stroke-width="2"/>
<rect x="150.407" y="76.5525" width="37.33" height="37.33" transform="rotate(-180 150.407 76.5525)" stroke="#599D92" stroke-width="2"/>
<rect x="187.737" y="76.5525" width="37.33" height="37.33" transform="rotate(-180 187.737 76.5525)" stroke="#599D92" stroke-width="2"/>
<rect x="225.067" y="76.5525" width="37.33" height="37.33" transform="rotate(-180 225.067 76.5525)" stroke="#599D92" stroke-width="2"/>
<rect x="262.397" y="76.5525" width="37.33" height="37.33" transform="rotate(-180 262.397 76.5525)" stroke="#599D92" stroke-width="2"/>
<rect x="299.727" y="76.5525" width="37.33" height="37.33" transform="rotate(-180 299.727 76.5525)" stroke="#599D92" stroke-width="2"/>
<rect x="337.057" y="76.5525" width="37.33" height="37.33" transform="rotate(-180 337.057 76.5525)" stroke="#599D92" stroke-width="2"/>
<rect x="374.386" y="76.5525" width="37.33" height="37.33" transform="rotate(-180 374.386 76.5525)" stroke="#599D92" stroke-width="2"/>
<rect x="411.717" y="76.5525" width="37.33" height="37.33" transform="rotate(-180 411.717 76.5525)" stroke="#599D92" stroke-width="2"/>
<rect x="449.046" y="76.5525" width="37.33" height="37.33" transform="rotate(-180 449.046 76.5525)" stroke="#599D92" stroke-width="2"/>
<rect x="38.4169" y="39.2227" width="37.33" height="37.33" transform="rotate(-180 38.4169 39.2227)" stroke="#599D92" stroke-width="2"/>
<rect x="75.7468" y="39.2227" width="37.33" height="37.33" transform="rotate(-180 75.7468 39.2227)" stroke="#599D92" stroke-width="2"/>
<rect x="113.077" y="39.2227" width="37.33" height="37.33" transform="rotate(-180 113.077 39.2227)" stroke="#599D92" stroke-width="2"/>
<rect x="150.407" y="39.2227" width="37.33" height="37.33" transform="rotate(-180 150.407 39.2227)" stroke="#599D92" stroke-width="2"/>
<rect x="187.737" y="39.2227" width="37.33" height="37.33" transform="rotate(-180 187.737 39.2227)" stroke="#599D92" stroke-width="2"/>
<rect x="225.067" y="39.2227" width="37.33" height="37.33" transform="rotate(-180 225.067 39.2227)" stroke="#599D92" stroke-width="2"/>
<rect x="262.397" y="39.2227" width="37.33" height="37.33" transform="rotate(-180 262.397 39.2227)" stroke="#599D92" stroke-width="2"/>
<rect x="299.727" y="39.2227" width="37.33" height="37.33" transform="rotate(-180 299.727 39.2227)" stroke="#599D92" stroke-width="2"/>
<rect x="337.057" y="39.2227" width="37.33" height="37.33" transform="rotate(-180 337.057 39.2227)" stroke="#599D92" stroke-width="2"/>
<rect x="374.386" y="39.2227" width="37.33" height="37.33" transform="rotate(-180 374.386 39.2227)" stroke="#599D92" stroke-width="2"/>
<rect x="411.717" y="39.2227" width="37.33" height="37.33" transform="rotate(-180 411.717 39.2227)" stroke="#599D92" stroke-width="2"/>
<rect x="449.046" y="39.2227" width="37.33" height="37.33" transform="rotate(-180 449.046 39.2227)" stroke="#599D92" stroke-width="2"/>
</svg>
